<?xml version="1.0" encoding="UTF-8"?>
<!DOCTYPE svg PUBLIC "-//W3C//DTD SVG 1.1//EN" "http://www.w3.org/Graphics/SVG/1.1/DTD/svg11.dtd">
<!-- Creator: CorelDRAW 2020 (64-Bit) -->
<svg xmlns="http://www.w3.org/2000/svg" xml:space="preserve" width="3.08817in" height="0.519469in" version="1.1" style="shape-rendering:geometricPrecision; text-rendering:geometricPrecision; image-rendering:optimizeQuality; fill-rule:evenodd; clip-rule:evenodd"
viewBox="0 0 816.06 137.27"
 xmlns:xlink="http://www.w3.org/1999/xlink"
 xmlns:xodm="http://www.corel.com/coreldraw/odm/2003">
 <defs>
  <style type="text/css">
   <![CDATA[
    .fil2 {fill:#003FBD}
    .fil0 {fill:white}
    .fil3 {fill:white}
    .fil1 {fill:#003FBD;fill-rule:nonzero}
   ]]>
  </style>
 </defs>
 <g id="Layer_x0020_1">
  <metadata id="CorelCorpID_0Corel-Layer"/>
  <g id="_2264068091168">
   <g>
    <path class="fil0" d="M172.05 32.43c2.51,0 4.72,0.94 6.62,2.84 0.5,0.26 1.07,1.24 1.68,2.97 0.68,1.55 1.46,2.31 2.34,2.31l1.03 -0.26 4.61 -2.62c1.14,-0.52 2.42,-0.87 3.82,-1.05l3.95 0.79c2.27,0.5 4.61,3.06 6.97,7.64l5.29 11.82 1.31 7.4 0.66 7.82c0,3.82 -0.31,6.82 -0.92,9.02 -0.61,2.23 -1.22,3.95 -1.84,5.18 -0.61,1.25 -1.66,2.82 -3.15,4.72 -1.49,1.9 -3.28,3.17 -5.37,3.78 -2.1,0.63 -3.93,1.03 -5.5,1.2 -1.57,0.17 -3.58,0.26 -6.03,0.26l-12.06 0c-1.4,0 -2.71,0.22 -3.93,0.66l-0.52 39.58 -6.03 0.52 -16.73 0c-1.07,-0.17 -1.88,-0.26 -2.4,-0.26l0 -92.11 3.28 -4.87c1.49,-2.53 3.23,-4.19 5.24,-4.98 1.05,0 2.58,0.61 4.59,1.83l3.67 1.57c0.52,0 1.18,-0.26 1.97,-0.76 1.31,-3.34 3.8,-5 7.47,-5zm-33.42 2.75l0 8.65c0,0.79 -0.22,1.62 -0.66,2.49l0.26 8.26c0,1.66 -0.09,2.99 -0.26,4 -0.17,1 -0.52,1.94 -1.05,2.82l-22.8 0.52 -2.23 1.97c-0.52,0.44 -1.31,0.66 -2.36,0.66 -0.44,-0.7 -1.05,-1.22 -1.84,-1.57 -0.79,-0.35 -1.75,-0.52 -2.88,-0.52l-2.62 0.39c-0.61,2.18 -0.92,4.46 -0.92,6.82l0 3.01 0.39 4.72c1.33,-2.27 3.74,-3.41 7.23,-3.41 1.42,0 2.8,0.26 4.13,0.79 0.63,0.79 1.35,1.27 2.14,1.44l2.14 -1.31c0.98,-0.79 1.84,-1.27 2.56,-1.44 0.61,0 1.16,0.17 1.59,0.52l0.39 2.88 0 3.28 -0.39 6.55 0 7.86c-0.35,0.52 -1.18,0.83 -2.49,0.92 -1.57,0 -2.62,0.13 -3.15,0.39 -0.52,0.61 -1,2.18 -1.44,4.72 -0.26,2.36 -0.92,3.8 -1.97,4.32 -0.61,-0.87 -1.35,-2.49 -2.23,-4.85l-1.18 -4.19 -3.28 -0.13c-1.05,0 -1.86,0.07 -2.43,0.2 -0.57,0.13 -1.25,0.55 -2.03,1.25 0.26,0.96 0.39,2.62 0.39,4.98 0,2.45 0.17,4.24 0.52,5.37l4.72 -0.79 3.67 -0.26c1.31,0 2.51,0.22 3.6,0.66 1.09,0.44 2.12,1.4 3.08,2.88 1.57,-0.61 2.97,-0.92 4.19,-0.92 0.79,0 1.62,0.09 2.49,0.26 0.87,0.17 2.31,0.52 4.32,1.05l6.55 1.31c0.61,0.26 1.25,1.2 1.9,2.82 0.66,1.62 1.77,2.29 3.34,2.03l0.79 4.19 0 14.81 -1.7 1.7 -61.99 0 -1.18 -1.44 0 -51.64c0,-3.06 -0.13,-7.21 -0.39,-12.45 -0.26,-5.24 -0.39,-8.91 -0.39,-11.01 0,-2.36 -0.2,-4.98 -0.59,-7.86 -0.39,-2.88 -1.24,-7.17 -2.56,-12.84l6.53 -5.24c0.96,-0.44 2.05,-0.74 3.28,-0.92 1.31,0 3.1,0.68 5.37,2.03 2.25,1.35 4,2.03 5.22,2.03l1.44 -0.13 4.32 -3.04 3.91 -2.34c0.79,0.61 2.49,1.35 5.11,2.23 2.36,0.52 4.04,1.48 5.09,2.88 4.63,0 8.5,-0.26 11.58,-0.79 3.1,-0.52 5.74,-1.97 7.93,-4.32l1.29 0c0.61,0 1.4,0.31 2.36,0.92l3.15 1.84zm-79.44 5.61c1.22,1.2 2.45,3.12 3.69,5.79l3.67 8.41 1.18 16.82 0 52.75c-0.7,2.53 -1.66,4.74 -2.88,6.62 -1.22,1.88 -2.84,3.34 -4.85,4.39l-9.96 1.7 -44.95 -0.52 -1.18 -77.85c-0.61,-0.35 -0.96,-0.96 -1.05,-1.83l0.52 -2.88 -0.39 -1.18c0,-1.49 -0.35,-3.21 -1.05,-5.18 -0.7,-1.97 -1.16,-3.43 -1.38,-4.39 -0.22,-0.96 -0.37,-1.92 -0.46,-2.88 0,-1.31 0.22,-2.36 0.66,-3.15 0.87,-1.14 1.99,-2.21 3.34,-3.21 1.38,-1 2.71,-1.51 4.02,-1.51 1.4,0 2.58,0.61 3.54,1.84 0.79,0.26 1.97,1.05 3.54,2.36 1.48,1.05 2.64,1.66 3.43,1.84 0.87,0 1.83,-0.83 2.88,-2.49l1.57 0 4.59 0.79c2.12,0.52 3.69,0.79 4.74,0.79 1.22,0 2.31,-0.26 3.28,-0.79 0.96,-0.52 1.88,-1.66 2.75,-3.41 1.24,-0.79 2.42,-1.18 3.56,-1.18 1.48,0 3.04,0.61 4.65,1.81 1.62,1.2 2.95,2.71 4.02,4.5 0.26,1.03 0.96,1.59 2.1,1.68l1.97 -0.39 2.23 -0.39c0.79,0 1.53,0.39 2.23,1.16zm331.53 -7.51c0.92,0.57 1.68,1.64 2.29,3.21l0.92 23.11 0 76.36 -1.7 1.31 -22.8 0 -0.92 -2.49 0.52 -91.17c0.7,-3.52 1.44,-6.09 2.23,-7.75 0.79,-1.68 2.31,-2.82 4.59,-3.43l1.44 1.05 2.1 0 3.8 -0.46 4.32 -0.59c1.22,0 2.29,0.28 3.21,0.85zm-53.54 0.59c2.71,1.05 5.85,4.08 9.44,9.11 3.58,5.02 6.55,8.1 8.91,9.24 -0.35,2.53 -2.05,6.03 -5.11,10.48l-4.98 7.47c-0.35,-0.17 -0.79,-0.31 -1.31,-0.39 -0.52,-0.09 -1.48,-0.13 -2.88,-0.13 -2.1,0 -3.15,-1.14 -3.15,-3.41l-5.31 -1.97c-2.58,-0.96 -4.63,-1.7 -6.16,-2.23 -1.53,-0.52 -3.65,-0.79 -6.36,-0.79 -1.84,0 -3.43,0.2 -4.78,0.59 -1.35,0.39 -2.77,1.2 -4.26,2.42l-0.26 1.97c0,1.75 0.44,3.19 1.31,4.32 0.87,1.14 2.18,1.7 3.93,1.7l27.78 6.55c10.14,3.76 15.99,10.44 17.56,20.05l0.39 5.11c0,4.63 -1,9.11 -3.01,13.43 -2.01,4.32 -4.98,8.37 -8.91,12.12 -3.23,2.8 -6.95,4.78 -11.14,5.96 -4.19,1.18 -8.56,1.77 -13.11,1.77l-6.81 0 -5.64 -0.66c-5.94,-1.42 -11.42,-3.41 -16.45,-5.94 -5.02,-2.53 -9.76,-5.92 -14.22,-10.18l0 -1.7 11.93 -15.73 1.97 0.39c2.01,0 3.67,-0.83 4.98,-2.49 0.52,0.26 2.56,0.74 6.05,1.44 3.08,0.35 5,1.83 5.79,4.46 1.14,0 2.77,-0.61 4.87,-1.84 2.1,-1.22 3.47,-1.88 4.08,-1.97 1.84,-0.26 3.65,0.5 5.46,2.29 1.79,1.79 3.39,2.77 4.81,2.95l1.44 -0.11c0.52,-0.96 0.17,-1.86 -1.05,-2.64l-3.3 -2.23 -19.44 -4.22c-10.94,-2.21 -18.61,-6.79 -23,-13.83 -0.7,-1.84 -1.22,-3.65 -1.57,-5.46 -0.35,-1.79 -0.52,-3.87 -0.52,-6.25l0.39 -5c0.17,-1.4 0.33,-2.36 0.46,-2.88l0.59 -2.25c-1.57,-2.8 -2.36,-5.74 -2.36,-8.8 0,-0.7 0.02,-1.53 0.07,-2.45 0.04,-0.92 0.42,-2.29 1.11,-4.13 0.7,-1.86 1.75,-3.73 3.15,-5.68 1.05,-1.84 3.28,-2.75 6.68,-2.75 3.32,0 5.24,-1.75 5.77,-5.24 1.57,-1.31 3.58,-1.97 6.03,-1.97 1.4,0 2.49,0.22 3.28,0.66 0.87,0.26 1.62,0.96 2.23,2.1 1.14,-1.4 2.62,-2.1 4.46,-2.1l2.36 0.39c1.75,1.75 3.84,2.62 6.29,2.62 1.14,0 2.32,-0.11 3.54,-0.35 1.22,-0.22 2.18,-0.41 2.88,-0.57l5.11 -1.31zm-67.89 5.61c0.87,3.32 2.21,7.82 4,13.5 1.79,5.68 3.04,10.66 3.73,14.94 0,3.32 0.31,8.39 0.92,15.2l0.92 16.51c0,4.28 -0.26,8.19 -0.79,11.69 -0.52,3.49 -1.62,7.38 -3.28,11.66 -1.68,4.28 -5.7,8.17 -12.08,11.66 -6.49,1.75 -12.45,2.62 -17.87,2.62 -4.39,0 -8.28,-0.5 -11.69,-1.51 -3.43,-1 -7.14,-3.19 -11.16,-6.55 -4.04,-3.36 -6.44,-8.85 -7.23,-16.45l-1.2 -18.74 -0.24 -12.84c0,-2.01 0.04,-3.95 0.13,-5.83 0.09,-1.88 0.33,-4.13 0.72,-6.75 0.39,-2.62 1.29,-5.42 2.69,-8.39l-2.1 -10.35c0,-2.27 0.83,-4.11 2.49,-5.5l3.01 -2.49c1.66,-1.49 2.93,-2.23 3.8,-2.23 0.7,0 1.4,0.22 2.1,0.65l3.15 -2.1c0.96,-0.52 1.97,-0.79 3.01,-0.79 0.79,0 1.57,0.26 2.36,0.79l2.1 2.49c0.7,-0.17 1.97,-1.07 3.8,-2.69 1.84,-1.62 3.28,-2.47 4.32,-2.56l1.57 0.41c0.79,1.03 1.7,1.55 2.75,1.55 0.7,0 2.1,-0.83 4.19,-2.51 2.1,-1.66 3.67,-2.51 4.72,-2.51 0.79,0 1.66,0.31 2.62,0.92 0.96,0.26 1.9,0.57 2.82,0.92 0.92,0.35 1.94,0.9 3.08,1.59 1.14,0.7 2.01,1.92 2.62,3.67zm179.72 -6.01c1.03,0 2.25,1.07 3.63,3.21 1.4,2.14 2.53,3.21 3.39,3.21 0.79,0 1.92,-0.74 3.39,-2.23l1.97 -0.13c2.16,0 4.11,0.63 5.85,1.9 1.72,1.27 3.01,2.64 3.84,4.08 0.81,1.46 1.35,2.97 1.62,4.57 0.26,1.57 0.39,3.47 0.39,5.66l0 9.09c-1.05,0.52 -1.88,2.18 -2.49,4.98 -0.44,2.62 -1.31,3.93 -2.62,3.93l-1.57 -3.54c-0.52,-1.83 -1.4,-3.06 -2.62,-3.67l-14.02 0 -0.79 1.18 0 71.16 -6.05 0.13 -12.25 0c-1.77,0 -3.34,-0.17 -4.76,-0.52 -0.44,-3.58 -0.74,-6.4 -0.92,-8.41 -0.17,-2.01 -0.26,-4.32 -0.26,-6.95l0 -37.81 0.39 -17.08 -2.1 -1.7 -21.76 0.52 -1.18 -1.44 0.39 -18.48c-1.22,-0.7 -1.84,-1.79 -1.84,-3.28 0,-1.57 0.48,-2.88 1.44,-3.93 0.96,-1.92 2.45,-2.88 4.46,-2.88 1.92,0 3.23,-0.22 3.93,-0.66 1.05,2.27 2.88,3.41 5.5,3.41l2.36 -0.39c0.87,-0.35 2.21,-1.27 4,-2.75 1.79,-1.49 3.34,-2.23 4.65,-2.23l1.44 0c0.61,1.09 1.49,2.03 2.62,2.86l3.41 2.03c0.09,0.26 0.17,0.5 0.26,0.68 0.09,0.17 0.31,0.5 0.66,0.94l1.05 0.96c1.22,-0.26 2.84,-1.38 4.89,-3.41 2.03,-2.01 3.69,-3.01 5,-3.01 0.79,0 1.68,0.17 2.73,0.52l1.97 -0.52zm178.59 0.33l4.59 0.55c0.26,1.38 0.7,2.31 1.31,2.82 0.61,0.5 1.35,0.76 2.23,0.76 0.7,0 1.97,-0.31 3.8,-0.92l3.8 -0.92c0.7,0 1.35,0.22 1.97,0.66 0.61,0.44 1.18,1.22 1.7,2.36l0.52 2.75 0 2.1 -1.18 3.28 0.39 3.54 -0.26 5.11 -0.26 3.8 0.13 2.75 -1.31 0.92 -26.34 0.39c-0.52,0.44 -1,1.66 -1.44,3.67 -0.26,1.84 -0.79,3.01 -1.57,3.54l-2.88 -3.15 -2.23 -3.28c-0.26,0.7 -0.44,1.27 -0.52,1.7 -0.09,0.44 -0.13,1.22 -0.13,2.36l0 4.98 0.66 3.41c0.79,-1.05 1.79,-1.62 3.01,-1.7l3.41 0.92c1.57,0.52 2.71,0.79 3.41,0.79l1.44 1.7c0.44,0.52 0.87,0.79 1.31,0.79 0.61,-0.26 1,-0.5 1.18,-0.72 0.17,-0.22 0.57,-0.42 1.18,-0.59l2.88 0.79c0.26,0.79 0.46,1.57 0.59,2.36 0.13,0.79 0.28,1.57 0.46,2.36l0.26 5.11 -0.13 5.63 0 3.67c-0.17,0.79 -0.26,1.35 -0.26,1.7l-18.46 0.52 -0.94 1.18 0 34.86 -1.16 0.92 -23.09 0 -0.92 -2.62 -0.52 -86.63c-0.96,-0.52 -1.44,-1.53 -1.44,-3.01l0.26 -2.88c0.61,-1.22 1.53,-2.45 2.75,-3.67l4.85 -4.46c0.7,0.52 1.68,0.96 2.95,1.31 1.27,0.35 2.86,0.52 4.78,0.52 3.84,0 6.51,0.83 7.99,2.49l16.25 -5.9 2.23 0c0.87,0 1.79,0.46 2.75,1.38zm-94.88 5.68c0.87,3.32 2.21,7.82 4,13.5 1.79,5.68 3.04,10.66 3.73,14.94 0,3.32 0.31,8.39 0.92,15.2l0.92 16.51c0,4.28 -0.26,8.19 -0.79,11.69 -0.52,3.49 -1.62,7.38 -3.28,11.66 -1.68,4.28 -5.7,8.17 -12.08,11.66 -6.49,1.75 -12.45,2.62 -17.87,2.62 -4.39,0 -8.28,-0.5 -11.69,-1.51 -3.43,-1 -7.14,-3.19 -11.16,-6.55 -4.04,-3.36 -6.44,-8.85 -7.23,-16.45l-1.2 -18.74 -0.24 -12.84c0,-2.01 0.04,-3.95 0.13,-5.83 0.09,-1.88 0.33,-4.13 0.72,-6.75 0.39,-2.62 1.29,-5.42 2.69,-8.39l-2.1 -10.35c0,-2.27 0.83,-4.11 2.49,-5.5l3.01 -2.49c1.66,-1.49 2.93,-2.23 3.8,-2.23 0.7,0 1.4,0.22 2.1,0.65l3.15 -2.1c0.96,-0.52 1.97,-0.79 3.01,-0.79 0.79,0 1.57,0.26 2.36,0.79l2.1 2.49c0.7,-0.17 1.97,-1.07 3.8,-2.69 1.84,-1.62 3.28,-2.47 4.32,-2.56l1.57 0.41c0.79,1.03 1.7,1.55 2.75,1.55 0.7,0 2.1,-0.83 4.19,-2.51 2.1,-1.66 3.67,-2.51 4.72,-2.51 0.79,0 1.66,0.31 2.62,0.92 0.96,0.26 1.9,0.57 2.82,0.92 0.92,0.35 1.94,0.9 3.08,1.59 1.14,0.7 2.01,1.92 2.62,3.67zm273.78 0c0.87,3.32 2.21,7.82 4,13.5 1.79,5.68 3.04,10.66 3.73,14.94 0,3.32 0.31,8.39 0.92,15.2l0.92 16.51c0,4.28 -0.26,8.19 -0.79,11.69 -0.52,3.49 -1.62,7.38 -3.28,11.66 -1.68,4.28 -5.7,8.17 -12.08,11.66 -6.49,1.75 -12.45,2.62 -17.87,2.62 -4.39,0 -8.28,-0.5 -11.69,-1.51 -3.43,-1 -7.14,-3.19 -11.16,-6.55 -4.04,-3.36 -6.44,-8.85 -7.23,-16.45l-1.2 -18.74 -0.24 -12.84c0,-2.01 0.04,-3.95 0.13,-5.83 0.09,-1.88 0.33,-4.13 0.72,-6.75 0.39,-2.62 1.29,-5.42 2.69,-8.39l-2.1 -10.35c0,-2.27 0.83,-4.11 2.49,-5.5l3.01 -2.49c1.66,-1.49 2.93,-2.23 3.8,-2.23 0.7,0 1.4,0.22 2.1,0.65l3.15 -2.1c0.96,-0.52 1.97,-0.79 3.01,-0.79 0.79,0 1.57,0.26 2.36,0.79l2.1 2.49c0.7,-0.17 1.97,-1.07 3.8,-2.69 1.84,-1.62 3.28,-2.47 4.32,-2.56l1.57 0.41c0.79,1.03 1.7,1.55 2.75,1.55 0.7,0 2.1,-0.83 4.19,-2.51 2.1,-1.66 3.67,-2.51 4.72,-2.51 0.79,0 1.66,0.31 2.62,0.92 0.96,0.26 1.9,0.57 2.82,0.92 0.92,0.35 1.94,0.9 3.08,1.59 1.14,0.7 2.01,1.92 2.62,3.67zm-61.34 -2.99l0.92 23.11 0 76.36 -1.7 1.31 -22.8 0 -0.92 -2.49 0.52 -91.17c0.7,-3.52 1.44,-6.09 2.23,-7.75 0.79,-1.68 2.31,-2.82 4.59,-3.43l1.44 1.05 2.1 0 3.8 -0.46 4.32 -0.59c1.22,0 2.29,0.28 3.21,0.85 0.92,0.57 1.68,1.64 2.29,3.21zm-32.9 17.95c0.96,2.18 1.62,4.37 1.97,6.55l0.52 7.34c0,3.15 -0.24,6.14 -0.72,8.98 -0.48,2.84 -1.57,5.05 -3.28,6.62 -1.7,1.57 -3.87,3.1 -6.49,4.59 0.17,0.79 0.79,1.4 1.84,1.83 1.07,0.44 2.12,1.46 3.12,3.08 1.03,1.62 1.81,3.87 2.36,6.75 0.55,2.88 0.92,5.29 1.07,7.21 0.17,1.92 0.26,4.15 0.26,6.68l0 13.24c-0.09,1.05 -0.13,1.84 -0.13,2.36 0,2.97 -0.72,4.98 -2.16,6.03 -1.44,1.05 -3.6,1.57 -6.49,1.57l-5.63 0c-0.44,0 -1.27,-0.13 -2.49,-0.39l-1.57 0.39 -1.18 0 -2.88 -1.73 -2.23 -2.51 -0.39 -8.87 0 -14.85c0,-2.9 -0.07,-4.94 -0.2,-6.07 -0.13,-1.16 -0.42,-2.73 -0.83,-4.76l-2.47 -0.79 -7.12 0 -0.66 1.31 0 38.27 -25.03 0 0 -93.81 3.01 -6.71c1.49,-2.53 3.28,-3.8 5.37,-3.8 1.14,0 2.21,0.28 3.21,0.85 1,0.57 2.03,1.62 3.08,3.15 1.05,1.53 2.01,2.29 2.88,2.29 0.61,0 1.33,-0.17 2.16,-0.52 0.83,-0.35 2.32,-1.16 4.46,-2.43 2.14,-1.27 4,-1.99 5.57,-2.16l2.36 0.39c0.52,0.35 1.33,1.53 2.42,3.54 1.09,2.01 2.12,3.06 3.08,3.15l1.31 -0.39c0.44,-0.79 0.9,-1.57 1.38,-2.36 0.48,-0.79 1.16,-1.73 2.03,-2.82 0.87,-1.09 2.1,-2.16 3.67,-3.21 2.64,-0.26 4.65,1.29 6.01,4.65 1.38,3.36 3.26,4.91 5.64,4.65l1.84 4.19c1.24,2.71 1.86,4.81 1.86,6.29l-0.52 2.23z"/>
   </g>
   <path class="fil1" d="M59.08 40.79c1.22,1.2 2.45,3.12 3.69,5.79l3.67 8.41 1.18 16.82 0 19.99 0 16.51 0 16.25c-0.7,2.53 -1.66,4.74 -2.88,6.62 -1.22,1.88 -2.84,3.34 -4.85,4.39l-9.96 1.7 -44.95 -0.52 -1.18 -77.85c-0.61,-0.35 -0.96,-0.96 -1.05,-1.83l0.52 -2.88 -0.39 -1.18c0,-1.49 -0.35,-3.21 -1.05,-5.18 -0.7,-1.97 -1.16,-3.43 -1.38,-4.39 -0.22,-0.96 -0.37,-1.92 -0.46,-2.88 0,-1.31 0.22,-2.36 0.66,-3.15 0.87,-1.14 1.99,-2.21 3.34,-3.21 1.38,-1 2.71,-1.51 4.02,-1.51 1.4,0 2.58,0.61 3.54,1.84 0.79,0.26 1.97,1.05 3.54,2.36 1.48,1.05 2.64,1.66 3.43,1.84 0.87,0 1.83,-0.83 2.88,-2.49l1.57 0 4.59 0.79c2.12,0.52 3.69,0.79 4.74,0.79 1.22,0 2.31,-0.26 3.28,-0.79 0.96,-0.52 1.88,-1.66 2.75,-3.41 1.24,-0.79 2.42,-1.18 3.56,-1.18 1.48,0 3.04,0.61 4.65,1.81 1.62,1.2 2.95,2.71 4.02,4.5 0.26,1.03 0.96,1.59 2.1,1.68l1.97 -0.39 2.23 -0.39c0.79,0 1.53,0.39 2.23,1.16zm-12.49 -3.78l-3.26 -1.83c-0.79,-0.52 -1.66,-0.79 -2.62,-0.79 -1.14,0 -2.16,0.61 -3.12,1.83 -0.52,1.57 -1.2,2.64 -2.03,3.21 -0.83,0.57 -1.92,0.94 -3.32,1.11l-4.61 -0.79 -4.35 -0.92 -1.18 0 -0.66 0c-0.98,2.18 -2.12,3.28 -3.43,3.28 -0.61,0 -2.27,-1.03 -5,-3.08 -2.73,-2.08 -4.83,-3.19 -6.31,-3.34 -0.9,0.52 -1.59,1.27 -2.12,2.23l-0.52 3.41 0 2.62 0 2.62 0 1.57c0.92,0.52 1.59,1.27 2.01,2.23l0.61 3.28 0 3.15c0,1.31 0,2.18 0,2.62l-0.39 -0.79c0,-1.14 0.35,-1.94 1.05,-2.42 0.7,-0.48 1.49,-0.72 2.36,-0.72l3.93 0.52c0,-1.4 0.81,-2.73 2.42,-4 1.62,-1.27 2.69,-2.25 3.21,-2.95l1.83 -0.52c0.79,0 1.57,0.39 2.36,1.18l2.36 2.36 2.49 -2.36c0.79,-0.7 1.79,-1.05 3.01,-1.05 2.53,2.36 5.16,4.06 7.86,5.11 1.57,0.26 2.62,-0.61 3.15,-2.62 0.52,-2.01 1.05,-3.28 1.57,-3.8l1.97 1.57c1.22,0.79 2.01,1.57 2.36,2.36l4.72 -2.23c1.75,0.52 3.1,1.66 4.06,3.41l3.67 7.86 0.13 -4.19c0,-1.75 0.09,-3.15 0.26,-4.19 0,-2.53 -0.35,-4.54 -1.05,-6.03 -0.61,-1.66 -1.94,-3.01 -4.04,-4.06 -1.05,0.79 -2.08,1.18 -3.12,1.18 -1.48,0 -2.77,-0.59 -3.87,-1.77 -1.07,-1.18 -1.88,-2.6 -2.4,-4.26zm-17.36 23.07l0.39 52.03c0.96,-0.44 2.16,-0.66 3.58,-0.66l2.9 0 3.04 0c1.33,0 2.53,-0.26 3.58,-0.79l-0.92 -47.18c-0.26,-1.57 -0.96,-2.69 -2.14,-3.34 -1.16,-0.66 -2.56,-0.98 -4.19,-0.98l-3.23 0.39 -3.01 0.52zm10.75 56.49c-2.18,-0.96 -4.11,-1.44 -5.77,-1.44l-1.97 0.39 0 1.18c0,0.61 -0.39,1.42 -1.18,2.42 -0.79,1 -1.09,1.99 -0.92,2.95 0.17,0.96 0.59,1.99 1.25,3.08 0.66,1.09 1.38,1.94 2.16,2.56 1.14,-0.09 2.01,-0.83 2.62,-2.23l0.79 -3.8c1.05,0.17 2.23,1.14 3.54,2.88 1.31,1.75 2.58,2.8 3.8,3.15 0,-0.87 0,-1.53 0,-1.97 0,-0.87 0.04,-1.53 0.13,-1.97l0.39 -3.01c-0.26,-0.7 -1.03,-1.4 -2.29,-2.1 -1.27,-0.7 -2.12,-1.4 -2.56,-2.1zm72.26 -79.03c4.63,0 8.5,-0.26 11.58,-0.79 3.1,-0.52 5.74,-1.97 7.93,-4.32l1.29 0c0.61,0 1.4,0.31 2.36,0.92l3.15 1.84 0 1.97 0 2.36 0 2.36 0 1.97c0,0.79 -0.22,1.62 -0.66,2.49l0.13 3.93 0.13 4.32c0,1.66 -0.09,2.99 -0.26,4 -0.17,1 -0.52,1.94 -1.05,2.82l-22.8 0.52 -2.23 1.97c-0.52,0.44 -1.31,0.66 -2.36,0.66 -0.44,-0.7 -1.05,-1.22 -1.84,-1.57 -0.79,-0.35 -1.75,-0.52 -2.88,-0.52l-2.62 0.39c-0.61,2.18 -0.92,4.46 -0.92,6.82l0 3.01 0.39 4.72c1.33,-2.27 3.74,-3.41 7.23,-3.41 1.42,0 2.8,0.26 4.13,0.79 0.63,0.79 1.35,1.27 2.14,1.44l2.14 -1.31c0.98,-0.79 1.84,-1.27 2.56,-1.44 0.61,0 1.16,0.17 1.59,0.52l0.39 2.88 0 3.28 -0.39 6.55 0 4.98 0 2.88c-0.35,0.52 -1.18,0.83 -2.49,0.92 -1.57,0 -2.62,0.13 -3.15,0.39 -0.52,0.61 -1,2.18 -1.44,4.72 -0.26,2.36 -0.92,3.8 -1.97,4.32 -0.61,-0.87 -1.35,-2.49 -2.23,-4.85l-1.18 -4.19 -3.28 -0.13c-1.05,0 -1.86,0.07 -2.43,0.2 -0.57,0.13 -1.25,0.55 -2.03,1.25 0.26,0.96 0.39,2.62 0.39,4.98 0,2.45 0.17,4.24 0.52,5.37l4.72 -0.79 3.67 -0.26c1.31,0 2.51,0.22 3.6,0.66 1.09,0.44 2.12,1.4 3.08,2.88 1.57,-0.61 2.97,-0.92 4.19,-0.92 0.79,0 1.62,0.09 2.49,0.26 0.87,0.17 2.31,0.52 4.32,1.05l6.55 1.31c0.61,0.26 1.25,1.2 1.9,2.82 0.66,1.62 1.77,2.29 3.34,2.03l0.79 4.19 0 5.11 0 4.98 0 4.72 -1.7 1.7 -61.99 0 -1.18 -1.44 0 -51.64c0,-3.06 -0.13,-7.21 -0.39,-12.45 -0.26,-5.24 -0.39,-8.91 -0.39,-11.01 0,-2.36 -0.2,-4.98 -0.59,-7.86 -0.39,-2.88 -1.24,-7.17 -2.56,-12.84l6.53 -5.24c0.96,-0.44 2.05,-0.74 3.28,-0.92 1.31,0 3.1,0.68 5.37,2.03 2.25,1.35 4,2.03 5.22,2.03l1.44 -0.13 4.32 -3.04 3.91 -2.34c0.79,0.61 2.49,1.35 5.11,2.23 2.36,0.52 4.04,1.48 5.09,2.88zm16.03 0.26c-2.88,0.52 -5.11,0.9 -6.64,1.11 -1.53,0.22 -4.02,0.72 -7.43,1.51 -1.59,0 -3.04,-0.24 -4.35,-0.72 -1.33,-0.5 -2.51,-1.33 -3.56,-2.56l-1.31 -0.39 -1.31 -0.13c-1.42,0 -2.69,0.17 -3.82,0.52 -1.22,0.52 -2.29,1.22 -3.17,2.1l-2.36 1.44 -1.46 0.39c-0.87,0 -2.18,-0.52 -3.93,-1.57 -1.77,-1.05 -3.12,-1.7 -4.08,-1.97l-2.77 -0.39c-2.8,0 -4.96,0.87 -6.44,2.64l0 2.1 0 1.59c0,2.97 0.83,7.86 2.49,14.61l2.88 12.21 -0.52 -4.06 -0.39 -4.85c0,-2.4 0.46,-4.11 1.38,-5.13 0.92,-1.05 1.77,-1.59 2.56,-1.68l1.7 0.39 1.84 0.79c0.17,-0.52 0.92,-1.59 2.23,-3.21 1.31,-1.62 1.84,-2.95 1.57,-4 0,-0.79 0.48,-1.22 1.44,-1.31l2.75 0c1.22,1.22 2.1,3.01 2.62,5.37l0.79 5.9c0.79,-3.23 2.1,-6.16 3.93,-8.78 2.01,0.52 3.56,2.32 4.65,5.37 1.09,3.06 1.94,4.89 2.56,5.5l2.1 -5.37c1.05,-2.01 2.4,-3.54 4.06,-4.59 0.61,0 1.44,0.26 2.49,0.79l2.62 1.84 1.2 -3.67c0.52,-1.75 1.31,-3.1 2.38,-4.06 2.73,-0.26 4.89,0.57 6.49,2.49l2.9 -3.41c1.75,-1.83 2.62,-3.76 2.62,-5.77 0,-0.79 -0.22,-1.62 -0.66,-2.49 -0.44,-0.87 -1.35,-1.31 -2.77,-1.31 -0.7,0 -1.57,0.26 -2.62,0.79l-2.64 1.97zm-22.24 39.19c-0.52,0.09 -0.92,0.61 -1.18,1.57l-0.52 2.23c-0.52,0.96 -0.79,1.79 -0.79,2.49 0,0.96 0.37,1.86 1.11,2.69 0.74,0.83 1.9,1.38 3.47,1.64l4.19 11.66 3.67 -8.13c0.96,-2.1 1.75,-4.15 2.36,-6.16 0.61,-2.01 0.92,-3.71 0.92,-5.11l-0.39 -2.88c-0.87,1.4 -2.14,2.1 -3.8,2.1l-2.23 -0.39c-0.35,-0.61 -0.94,-1.05 -1.77,-1.31 -0.83,-0.26 -1.86,-0.39 -3.08,-0.39l-1.97 0zm6.29 33.03l-4.98 -0.79c-1.05,0 -1.97,0.26 -2.75,0.79 -1.14,1.4 -1.7,3.32 -1.7,5.77l0.66 3.93 1.31 4.59 1.94 0.39 1.81 -0.26 2.21 -1.05c1.22,-2.45 2.34,-3.67 3.39,-3.67 0.79,0 2.07,1.42 3.89,4.26 1.83,2.84 3.43,4.26 4.83,4.26 0.85,-0.35 1.68,-1.14 2.47,-2.36l2.6 -4.19c1.72,0 2.93,0.61 3.63,1.84l3.12 6.42 -0.39 -1.97c0,-0.79 0.52,-2.14 1.57,-4.06 1.05,-1.92 1.57,-3.28 1.57,-4.06 0,-1.14 -1.05,-2.23 -3.15,-3.28 -0.44,-1.84 -1.92,-3.01 -4.46,-3.54l-7.08 -1.31 -1.44 0.92 -1.97 0.39 -2.23 0.13c-1.4,0 -2.42,-0.17 -3.08,-0.52 -0.66,-0.35 -1.25,-1.22 -1.77,-2.62zm66.25 -74.75c0.5,0.26 1.07,1.24 1.68,2.97 0.68,1.55 1.46,2.31 2.34,2.31l1.03 -0.26 4.61 -2.62c1.14,-0.52 2.42,-0.87 3.82,-1.05l3.95 0.79c2.27,0.5 4.61,3.06 6.97,7.64l5.29 11.82 1.31 7.4 0.66 7.82c0,3.82 -0.31,6.82 -0.92,9.02 -0.61,2.23 -1.22,3.95 -1.84,5.18 -0.61,1.25 -1.66,2.82 -3.15,4.72 -1.49,1.9 -3.28,3.17 -5.37,3.78 -2.1,0.63 -3.93,1.03 -5.5,1.2 -1.57,0.17 -3.58,0.26 -6.03,0.26l-3.67 0 -3.54 0c-0.87,0 -1.7,0 -2.49,0 -0.79,0 -1.57,0 -2.36,0 -1.4,0 -2.71,0.22 -3.93,0.66l-0.52 39.58 -6.03 0.52 -4.06 0 -7.47 0 -2.8 0c-0.81,0 -1.59,0 -2.4,0 -1.07,-0.17 -1.88,-0.26 -2.4,-0.26l0 -92.11 3.28 -4.87c1.49,-2.53 3.23,-4.19 5.24,-4.98 1.05,0 2.58,0.61 4.59,1.83l3.67 1.57c0.52,0 1.18,-0.26 1.97,-0.76 1.31,-3.34 3.8,-5 7.47,-5 2.51,0 4.72,0.94 6.62,2.84zm-11.99 3.36c-1.22,1.55 -2.53,2.31 -3.93,2.31 -0.52,0 -1.11,-0.09 -1.77,-0.26 -0.66,-0.17 -1.73,-0.63 -3.21,-1.38 -1.48,-0.74 -2.93,-1.25 -4.32,-1.51 -0.09,0.7 -1.11,2.05 -3.08,4.06 -1.97,2.01 -2.95,3.63 -2.95,4.85 0,0.61 0.17,1.27 0.52,1.97 0.26,0.87 0.7,1.72 1.31,2.56 0.61,0.83 1.44,1.38 2.49,1.64l1.7 -3.28 0.92 0 0.76 0c2.49,0 3.95,2.27 4.37,6.82 0.44,4.54 0.92,7.16 1.42,7.86 0.72,-2.8 1.92,-5.2 3.63,-7.21 1.68,-2.01 3.06,-3.54 4.08,-4.59 1.03,-1.05 2.38,-2.23 4.08,-3.54 0.61,-0.17 1.18,-0.17 1.7,0l1.99 0.65c0.52,1.79 1.07,3.04 1.64,3.69 0.59,0.68 1.35,1.11 2.31,1.29 0.9,0 2.56,-0.94 5.02,-2.82 2.47,-1.88 4.5,-2.82 6.09,-2.82 1.31,0 2.64,0.79 3.95,2.36 0.26,1.22 0.81,2.77 1.59,4.65 0.79,1.88 1.94,4.17 3.43,6.88l4.5 8.26c-0.26,-1.14 -0.5,-2.88 -0.72,-5.24 -0.22,-2.36 -0.33,-5.07 -0.33,-8.13 0,-6.97 -1.4,-11.75 -4.19,-14.33 -2.53,-2.6 -4.89,-3.89 -7.08,-3.89 -1.49,0 -3.36,0.48 -5.64,1.44l-5.24 2.36c-0.44,-0.17 -0.87,-0.52 -1.31,-1.05l-1.18 -2.08c-0.26,-1.42 -0.92,-2.47 -1.97,-3.12 -1.05,-0.68 -2.05,-1.22 -3.01,-1.64 -0.96,-0.42 -1.92,-0.63 -2.88,-0.63 -1.05,0 -1.97,0.26 -2.75,0.76 -0.79,0.52 -1.44,1.55 -1.97,3.08zm4.85 22.76l0.79 9.83 1.7 -1.97c0.44,-0.44 1,-0.79 1.7,-1.05 0.96,0.09 2.05,1.14 3.28,3.15 1.22,2.01 2.53,2.88 3.93,2.62 0.52,-0.72 0.79,-1.81 0.79,-3.25l-0.39 -2.43c0,-1.09 -0.09,-1.9 -0.26,-2.45l0.13 -1.57c-0.52,-1.09 -1.35,-1.92 -2.47,-2.47 -1.09,-0.55 -2.49,-0.81 -4.17,-0.81l-2.14 0 -2.88 0.39zm3.41 10.61c-0.79,0.79 -1.35,1.73 -1.7,2.82 -0.35,1.09 -0.57,1.94 -0.66,2.56 -0.09,0.61 -0.17,1.27 -0.26,1.97l0.39 4.19 1.7 5.64c0.87,-0.2 1.57,-0.81 2.1,-1.84l1.31 -3.01 1.18 -0.26c0.96,0 1.66,0.52 2.1,1.57l0.66 2.62c0,-0.98 0.31,-2.43 0.92,-4.3l1.05 -3.63c0,-1.16 -0.35,-2.1 -1.05,-2.82l-1.31 0.26c-1.05,0 -2.18,-0.92 -3.41,-2.75 -0.87,-1.75 -1.88,-2.75 -3.01,-3.01zm-0.52 -27.39c-0.26,0.35 -0.48,0.52 -0.66,0.52l-1.05 0c-0.52,-0.26 -0.79,-0.74 -0.79,-1.44 0,-0.52 0.26,-0.92 0.79,-1.18 1.22,0 1.79,0.7 1.7,2.1zm94.88 -5.13c0.87,3.32 2.21,7.82 4,13.5 1.79,5.68 3.04,10.66 3.73,14.94 0,3.32 0.31,8.39 0.92,15.2l0.92 16.51c0,4.28 -0.26,8.19 -0.79,11.69 -0.52,3.49 -1.62,7.38 -3.28,11.66 -1.68,4.28 -5.7,8.17 -12.08,11.66 -6.49,1.75 -12.45,2.62 -17.87,2.62 -4.39,0 -8.28,-0.5 -11.69,-1.51 -3.43,-1 -7.14,-3.19 -11.16,-6.55 -4.04,-3.36 -6.44,-8.85 -7.23,-16.45l-1.2 -18.74 -0.11 -6.29 -0.13 -6.55c0,-2.01 0.04,-3.95 0.13,-5.83 0.09,-1.88 0.33,-4.13 0.72,-6.75 0.39,-2.62 1.29,-5.42 2.69,-8.39l-2.1 -10.35c0,-2.27 0.83,-4.11 2.49,-5.5l3.01 -2.49c1.66,-1.49 2.93,-2.23 3.8,-2.23 0.7,0 1.4,0.22 2.1,0.65l3.15 -2.1c0.96,-0.52 1.97,-0.79 3.01,-0.79 0.79,0 1.57,0.26 2.36,0.79l2.1 2.49c0.7,-0.17 1.97,-1.07 3.8,-2.69 1.84,-1.62 3.28,-2.47 4.32,-2.56l1.57 0.41c0.79,1.03 1.7,1.55 2.75,1.55 0.7,0 2.1,-0.83 4.19,-2.51 2.1,-1.66 3.67,-2.51 4.72,-2.51 0.79,0 1.66,0.31 2.62,0.92 0.96,0.26 1.9,0.57 2.82,0.92 0.92,0.35 1.94,0.9 3.08,1.59 1.14,0.7 2.01,1.92 2.62,3.67zm-12.45 -5.22l-6.95 6.95 -2.1 -2.05c-0.87,-0.72 -1.79,-1.18 -2.75,-1.35 -0.96,0 -2.25,1 -3.87,3.01 -1.62,2.01 -3.08,3.06 -4.39,3.15 -1.14,-2.18 -2.58,-3.28 -4.32,-3.28 -0.87,0 -2.23,0.42 -4.06,1.25 -1.84,0.83 -3.23,1.25 -4.19,1.25l-1.7 -0.39c-1.14,0.35 -1.92,0.74 -2.36,1.18l-3.8 5.07 1.84 7.47c0.96,1.59 1.92,2.4 2.88,2.4 0.52,0 1.46,-0.55 2.82,-1.64 1.35,-1.09 2.47,-1.73 3.34,-1.9 0.79,0 1.66,0.52 2.62,1.57 1.31,-0.44 2.51,-1.57 3.6,-3.41 1.09,-1.84 1.9,-2.91 2.42,-3.21 0.52,-0.31 1.18,-0.55 1.97,-0.72 0.96,0 2.34,0.79 4.13,2.36 1.79,1.57 3.21,2.36 4.26,2.36 0.52,0 1.14,-0.17 1.83,-0.52l0.92 -3.8c0.26,-1.05 0.96,-1.83 2.1,-2.36 2.53,0.26 4.72,2.21 6.55,5.83 1.84,3.63 3.32,5.83 4.46,6.62 0.26,-0.26 0.52,-1.29 0.79,-3.08 0.26,-1.79 1.09,-2.69 2.49,-2.69 2.36,2.64 4.08,7.19 5.18,13.63 1.09,6.47 1.81,10.09 2.16,10.88l0 -5.11 0 -2.36 0 -3.41 -0.52 -3.67c0.87,-1.14 1.31,-2.31 1.31,-3.54 0,-0.87 -0.44,-2.32 -1.31,-4.32l-1 -3.93c-1.94,-1.05 -2.93,-3.15 -2.93,-6.29 0,-3.06 -0.31,-5.22 -0.92,-6.49 -0.61,-1.27 -1.92,-2.29 -3.93,-3.08l-6.55 -2.36zm-12.91 23.2c-0.9,0 -1.62,0.48 -2.16,1.44l-0.79 2.49 0 50.46c0.96,-0.79 1.79,-1.18 2.49,-1.18 1.05,0 2.51,0.98 4.39,2.95 1.88,1.97 3.17,3.17 3.87,3.6l0 -55.83 -1.62 -3.28 -1.2 1.57 -1.62 1.7c-1.09,0.09 -1.94,-0.48 -2.56,-1.7l-0.81 -2.23zm-0.79 56.75c-0.72,0.35 -1.27,0.83 -1.62,1.44 -0.37,0.61 -0.55,1.35 -0.55,2.23l0.79 2.62 0 2.88 0 1.84 1.94 -0.52c1.03,0 1.73,0.87 2.05,2.62l1.16 4.85 2.07 -0.39 0.79 -3.93c0.5,-2.01 0.76,-3.54 0.76,-4.59 -0.81,-2.27 -1.75,-4.15 -2.84,-5.64 -0.7,-1.22 -2.23,-2.36 -4.57,-3.41zm13.96 -69.46l2.88 -1.31c0,1.05 -0.26,1.83 -0.79,2.36 -0.52,0.52 -1.31,0.74 -2.36,0.66 -0.61,-0.26 -1.18,-0.7 -1.7,-1.31l-0.92 -2.36c0.79,-0.26 1.31,0 1.57,0.79 0.26,0.79 0.7,1.18 1.31,1.18zm-29.23 5.64c-1.14,0.26 -2.36,-0.26 -3.67,-1.57l0.39 -1.18c0.96,0 1.75,0.35 2.36,1.05l0.92 1.7zm133.68 48.49l0.39 5.11c0,4.63 -1,9.11 -3.01,13.43 -2.01,4.32 -4.98,8.37 -8.91,12.12 -3.23,2.8 -6.95,4.78 -11.14,5.96 -4.19,1.18 -8.56,1.77 -13.11,1.77l-2.49 0c-0.7,0 -1.4,0 -2.1,0 -1.05,0 -1.79,0 -2.23,0l-5.64 -0.66c-5.94,-1.42 -11.42,-3.41 -16.45,-5.94 -5.02,-2.53 -9.76,-5.92 -14.22,-10.18l0 -1.7 11.93 -15.73 1.97 0.39c2.01,0 3.67,-0.83 4.98,-2.49 0.52,0.26 2.56,0.74 6.05,1.44 3.08,0.35 5,1.83 5.79,4.46 1.14,0 2.77,-0.61 4.87,-1.84 2.1,-1.22 3.47,-1.88 4.08,-1.97 1.84,-0.26 3.65,0.5 5.46,2.29 1.79,1.79 3.39,2.77 4.81,2.95l1.44 -0.11c0.52,-0.96 0.17,-1.86 -1.05,-2.64l-3.3 -2.23 -19.44 -4.22c-10.94,-2.21 -18.61,-6.79 -23,-13.83 -0.7,-1.84 -1.22,-3.65 -1.57,-5.46 -0.35,-1.79 -0.52,-3.87 -0.52,-6.25l0.39 -5c0.17,-1.4 0.33,-2.36 0.46,-2.88 0.13,-0.52 0.33,-1.29 0.59,-2.25 -1.57,-2.8 -2.36,-5.74 -2.36,-8.8 0,-0.7 0.02,-1.53 0.07,-2.45 0.04,-0.92 0.42,-2.29 1.11,-4.13 0.7,-1.86 1.75,-3.73 3.15,-5.68 1.05,-1.84 3.28,-2.75 6.68,-2.75 3.32,0 5.24,-1.75 5.77,-5.24 1.57,-1.31 3.58,-1.97 6.03,-1.97 1.4,0 2.49,0.22 3.28,0.66 0.87,0.26 1.62,0.96 2.23,2.1 1.14,-1.4 2.62,-2.1 4.46,-2.1l2.36 0.39c1.75,1.75 3.84,2.62 6.29,2.62 1.14,0 2.32,-0.11 3.54,-0.35 1.22,-0.22 2.18,-0.41 2.88,-0.57l5.11 -1.31c2.71,1.05 5.85,4.08 9.44,9.11 3.58,5.02 6.55,8.1 8.91,9.24 -0.35,2.53 -2.05,6.03 -5.11,10.48l-4.98 7.47c-0.35,-0.17 -0.79,-0.31 -1.31,-0.39 -0.52,-0.09 -1.48,-0.13 -2.88,-0.13 -2.1,0 -3.15,-1.14 -3.15,-3.41 -0.96,-0.35 -2.73,-1 -5.31,-1.97 -2.58,-0.96 -4.63,-1.7 -6.16,-2.23 -1.53,-0.52 -3.65,-0.79 -6.36,-0.79 -1.84,0 -3.43,0.2 -4.78,0.59 -1.35,0.39 -2.77,1.2 -4.26,2.42l-0.26 1.97c0,1.75 0.44,3.19 1.31,4.32 0.87,1.14 2.18,1.7 3.93,1.7l27.78 6.55c10.14,3.76 15.99,10.44 17.56,20.05zm-53.52 -64.35l-4.22 1.05c-1.05,0.09 -1.92,0.55 -2.62,1.42 -0.35,3.17 -2.56,5.05 -6.58,5.64 -3.95,0.35 -6.51,1.84 -7.64,4.5l-0.92 4.17 0 3.8c0,1.66 0.26,2.84 0.79,3.54 0.44,-0.7 1.05,-1.05 1.84,-1.05 0.7,0 1.53,0.2 2.49,0.59 0.96,0.39 1.66,0.55 2.1,0.46 1.92,-2.45 3.58,-3.71 4.98,-3.8 0.96,0 2.18,2.12 3.67,6.36 1.48,4.24 3.28,6.75 5.37,7.54l1.7 -2.1 0.92 -15.73c0.79,-2.01 1.7,-3.01 2.75,-3.01 0.52,0 1.79,1.07 3.8,3.21 2.01,2.14 3.8,3.08 5.37,2.82l1.31 -4.98c0.35,-1.22 1.18,-2.36 2.49,-3.41 4.63,0 8.19,3.3 10.68,9.89 2.49,6.6 4.08,10.2 4.78,10.81l0 -1.73c0,-1.22 -0.13,-2.4 -0.37,-3.49 -0.24,-1.11 -0.44,-1.92 -0.55,-2.45 -0.13,-0.55 -0.33,-1.55 -0.61,-3.06 -0.28,-1.49 -0.44,-2.42 -0.44,-2.77l0 -2.1c0.17,-0.87 0.65,-1.79 1.44,-2.75 1.66,0 3.23,0.55 4.72,1.64 1.49,1.09 2.8,2.43 3.93,4l0.26 -2.88 -3.82 -5.68 -4.19 -5.04c-0.72,-1.31 -1.46,-2.25 -2.25,-2.84 -0.79,-0.57 -1.66,-0.85 -2.62,-0.85 -1.16,0 -2.69,0.44 -4.61,1.31 -1.94,0.87 -3.65,1.4 -5.13,1.57 -1.05,0 -2.07,-0.31 -3.04,-0.92 -0.52,0 -1.57,-0.39 -3.15,-1.18 -1.59,-0.79 -2.86,-1.27 -3.82,-1.44 -1.31,0 -2.38,0.74 -3.17,2.23 -1.05,0.35 -2.23,-0.07 -3.54,-1.22l-2.12 -2.05zm-6.51 69.33l-1.57 2.23c-0.35,0.61 -0.48,1.49 -0.39,2.62 1.57,1.4 3.19,3.5 4.85,6.29l3.89 7.21 1.11 -0.52c0.33,-0.44 0.5,-0.96 0.5,-1.57 0,-0.96 0.39,-1.88 1.18,-2.75 0.79,-0.87 1.88,-1.31 3.28,-1.31 0.61,0 1.14,0.17 1.57,0.52 0.61,0.26 1.09,0.83 1.44,1.7 0.35,0.87 0.66,1.66 0.92,2.36 0.26,0.7 0.61,1.53 1.05,2.49 1.22,0 2.01,-0.81 2.36,-2.42 0.35,-1.62 0.83,-2.64 1.44,-3.08 2.53,-0.26 4.72,1.18 6.55,4.32 1.83,3.15 3.36,5.11 4.59,5.9l-0.26 -3.93c0,-1.31 0.22,-3.15 0.65,-5.5l0.79 -4.59c-0.26,-1.75 -1.88,-2.86 -4.85,-3.34 -2.97,-0.48 -4.46,-1.81 -4.46,-4 -0.7,-0.44 -1.62,-0.74 -2.75,-0.92 -0.96,0 -1.77,0.17 -2.42,0.52 -0.66,0.35 -1.27,0.68 -1.84,0.98 -0.57,0.31 -1.38,0.94 -2.43,1.9 -1.05,0.52 -1.97,0.79 -2.75,0.79 -1.31,0 -2.49,-0.66 -3.54,-1.97 -0.26,-1.66 -1.4,-2.67 -3.41,-3.01l-5.5 -0.92zm2.88 -54.52c-0.26,0.52 -0.87,0.83 -1.83,0.92 -1.05,0 -1.57,-0.44 -1.57,-1.31l3.41 0.39zm88.59 -12.84l0.92 23.11 0 76.36 -1.7 1.31 -22.8 0 -0.92 -2.49 0.52 -91.17c0.7,-3.52 1.44,-6.09 2.23,-7.75 0.79,-1.68 2.31,-2.82 4.59,-3.43l1.44 1.05 2.1 0 3.8 -0.46 4.32 -0.59c1.22,0 2.29,0.28 3.21,0.85 0.92,0.57 1.68,1.64 2.29,3.21zm-15.47 -1.97l1.31 2.49 -3.01 0.92c-0.46,-0.07 -0.72,-0.42 -0.79,-1.05l0 -1.57c-1.31,0.79 -2.25,1.79 -2.82,3.01 -0.57,1.22 -0.85,2.62 -0.85,4.19 0,1.66 0.31,3.76 0.92,6.29l1.05 4.59c0.96,0.52 1.62,1.22 1.97,2.1l0.52 2.49 -0.79 4.06 -0.66 3.67c0,0.96 0.15,1.77 0.44,2.42 0.31,0.66 1.05,1.42 2.23,2.29 0.33,-0.61 0.68,-1.53 1,-2.75l0.39 -1.97 -0.39 -2.75c0,-1.22 0,-2.18 0,-2.88l0.39 -2.62c0.26,-0.87 0.85,-1.66 1.77,-2.36 1.33,0 2.42,0.57 3.23,1.7l3.39 6.03c1.92,-2.95 3.3,-6.51 4.13,-10.64 0.83,-4.13 1.25,-8.72 1.25,-13.76 -0.35,-1.4 -0.92,-2.36 -1.7,-2.93 -0.79,-0.57 -1.84,-0.9 -3.15,-0.98l-3.28 0 -3.54 0.66c-1.22,0 -2.23,-0.22 -3.01,-0.66zm9.31 9.44l0 0.65 -3.67 -0.52 -2.62 -1.18c0.7,-0.79 1.48,-1.18 2.36,-1.18 1.49,0 2.8,0.74 3.93,2.23zm45.61 -6.64c0.09,0.26 0.17,0.5 0.26,0.68 0.09,0.17 0.31,0.5 0.66,0.94l1.05 0.96c1.22,-0.26 2.84,-1.38 4.89,-3.41 2.03,-2.01 3.69,-3.01 5,-3.01 0.79,0 1.68,0.17 2.73,0.52l1.97 -0.52c1.03,0 2.25,1.07 3.63,3.21 1.4,2.14 2.53,3.21 3.39,3.21 0.79,0 1.92,-0.74 3.39,-2.23l1.97 -0.13c2.16,0 4.11,0.63 5.85,1.9 1.72,1.27 3.01,2.64 3.84,4.08 0.81,1.46 1.35,2.97 1.62,4.57 0.26,1.57 0.39,3.47 0.39,5.66l0 5.68 0 3.41c-1.05,0.52 -1.88,2.18 -2.49,4.98 -0.44,2.62 -1.31,3.93 -2.62,3.93l-1.57 -3.54c-0.52,-1.83 -1.4,-3.06 -2.62,-3.67l-14.02 0 -0.79 1.18 0 71.16 -6.05 0.13 -7.64 0 -4.61 0c-1.77,0 -3.34,-0.17 -4.76,-0.52 -0.44,-3.58 -0.74,-6.4 -0.92,-8.41 -0.17,-2.01 -0.26,-4.32 -0.26,-6.95l0 -15.51 0 -22.3 0.39 -17.08 -2.1 -1.7 -21.76 0.52 -1.18 -1.44 0.39 -18.48c-1.22,-0.7 -1.84,-1.79 -1.84,-3.28 0,-1.57 0.48,-2.88 1.44,-3.93 0.96,-1.92 2.45,-2.88 4.46,-2.88 1.92,0 3.23,-0.22 3.93,-0.66 1.05,2.27 2.88,3.41 5.5,3.41l2.36 -0.39c0.87,-0.35 2.21,-1.27 4,-2.75 1.79,-1.49 3.34,-2.23 4.65,-2.23l1.44 0c0.61,1.09 1.49,2.03 2.62,2.86l3.41 2.03zm-8.13 -2.01c-1.22,0 -2.44,0.59 -3.67,1.77 -1.22,1.18 -2.29,1.94 -3.21,2.29 -0.92,0.35 -1.73,0.52 -2.43,0.52l-1.83 0.39c-1.14,0 -2.58,-0.44 -4.32,-1.31l-3.67 -1.57c-1.22,-0.26 -2.23,0.13 -3.01,1.18 -0.44,0.96 -0.74,1.97 -0.92,3.01l2.86 4.85c0.7,1.05 1.59,2.1 2.73,3.15l2.08 -1.57c0.96,-0.52 1.75,-0.79 2.34,-0.79 1.05,0 2.23,0.66 3.52,1.97l2.73 3.15 1.7 1.7c0.24,0.26 0.68,0.48 1.29,0.66 0.52,0 1.05,-0.39 1.57,-1.18 0.85,-0.87 1.9,-1.31 3.1,-1.31 0.7,0 1.42,0.15 2.16,0.46 0.72,0.31 1.7,1 2.93,2.1 1.2,1.09 2.6,3.56 4.15,7.41l5.24 12.19c0.79,-1.05 1.44,-4.22 1.97,-9.5 0.52,-5.29 2.53,-8.19 6.03,-8.72 1.84,1.57 3.1,2.36 3.8,2.36 0.44,0 0.92,-1.35 1.44,-4.06 0.35,-2.71 1.49,-4.32 3.41,-4.85 0.44,-0.52 1.05,-0.79 1.84,-0.79 0.7,0 1.4,0.17 2.1,0.52l1.57 0.79c0.17,1.4 0.42,2.67 0.72,3.8 0.31,1.14 0.92,2.82 1.83,5.05 0.92,2.23 2.12,4.48 3.6,6.75l1.05 -2.88c-0.44,-0.7 -0.79,-1.46 -1.05,-2.29 -0.26,-0.83 -0.39,-1.68 -0.39,-2.56 0,-0.96 0.04,-1.7 0.13,-2.23 0.09,-0.52 0.46,-1.9 1.11,-4.13 0.66,-2.23 0.98,-3.69 0.98,-4.39 0,-2.27 -1.31,-4.28 -3.93,-6.03l-2.88 -0.52c-1.22,0 -2.4,0.22 -3.54,0.66l-3.15 1.05c-1.05,0 -1.86,-0.15 -2.42,-0.46 -0.57,-0.31 -1.11,-0.76 -1.64,-1.38l-2.88 -4.06 -2.75 -0.39c-1.75,0 -3.45,0.7 -5.11,2.1l-4.85 4.19 -2.88 0.92c-0.7,0 -1.31,-0.44 -1.83,-1.31 0,-1.49 -1.14,-2.8 -3.41,-3.93 -2.27,-1.14 -3.67,-2.05 -4.19,-2.75zm25.43 9.3c-0.87,0 -1.79,-0.48 -2.75,-1.44l-1.57 -1.7 0.52 -0.66c1.57,0.52 2.6,1 3.08,1.44 0.48,0.44 0.72,1.22 0.72,2.36zm-7.6 2.1l-1.31 -0.92 1.31 0 0 0.92zm-2.49 1.31c0,0.61 -0.37,1.14 -1.09,1.57l-1.92 0.92c-1.22,0.26 -2.18,-0.22 -2.88,-1.44l-1.31 -2.36c0.26,-0.35 0.57,-0.48 0.92,-0.39l1.05 0.39c0.24,1.05 0.79,1.62 1.62,1.7l1.88 -0.39c0.66,-0.26 1.25,-0.26 1.75,0zm93.05 -8.54c0.87,3.32 2.21,7.82 4,13.5 1.79,5.68 3.04,10.66 3.73,14.94 0,3.32 0.31,8.39 0.92,15.2l0.92 16.51c0,4.28 -0.26,8.19 -0.79,11.69 -0.52,3.49 -1.62,7.38 -3.28,11.66 -1.68,4.28 -5.7,8.17 -12.08,11.66 -6.49,1.75 -12.45,2.62 -17.87,2.62 -4.39,0 -8.28,-0.5 -11.69,-1.51 -3.43,-1 -7.14,-3.19 -11.16,-6.55 -4.04,-3.36 -6.44,-8.85 -7.23,-16.45l-1.2 -18.74 -0.11 -6.29 -0.13 -6.55c0,-2.01 0.04,-3.95 0.13,-5.83 0.09,-1.88 0.33,-4.13 0.72,-6.75 0.39,-2.62 1.29,-5.42 2.69,-8.39l-2.1 -10.35c0,-2.27 0.83,-4.11 2.49,-5.5l3.01 -2.49c1.66,-1.49 2.93,-2.23 3.8,-2.23 0.7,0 1.4,0.22 2.1,0.65l3.15 -2.1c0.96,-0.52 1.97,-0.79 3.01,-0.79 0.79,0 1.57,0.26 2.36,0.79l2.1 2.49c0.7,-0.17 1.97,-1.07 3.8,-2.69 1.84,-1.62 3.28,-2.47 4.32,-2.56l1.57 0.41c0.79,1.03 1.7,1.55 2.75,1.55 0.7,0 2.1,-0.83 4.19,-2.51 2.1,-1.66 3.67,-2.51 4.72,-2.51 0.79,0 1.66,0.31 2.62,0.92 0.96,0.26 1.9,0.57 2.82,0.92 0.92,0.35 1.94,0.9 3.08,1.59 1.14,0.7 2.01,1.92 2.62,3.67zm-12.45 -5.22l-6.95 6.95 -2.1 -2.05c-0.87,-0.72 -1.79,-1.18 -2.75,-1.35 -0.96,0 -2.25,1 -3.87,3.01 -1.62,2.01 -3.08,3.06 -4.39,3.15 -1.14,-2.18 -2.58,-3.28 -4.32,-3.28 -0.87,0 -2.23,0.42 -4.06,1.25 -1.84,0.83 -3.23,1.25 -4.19,1.25l-1.7 -0.39c-1.14,0.35 -1.92,0.74 -2.36,1.18l-3.8 5.07 1.84 7.47c0.96,1.59 1.92,2.4 2.88,2.4 0.52,0 1.46,-0.55 2.82,-1.64 1.35,-1.09 2.47,-1.73 3.34,-1.9 0.79,0 1.66,0.52 2.62,1.57 1.31,-0.44 2.51,-1.57 3.6,-3.41 1.09,-1.84 1.9,-2.91 2.42,-3.21 0.52,-0.31 1.18,-0.55 1.97,-0.72 0.96,0 2.34,0.79 4.13,2.36 1.79,1.57 3.21,2.36 4.26,2.36 0.52,0 1.14,-0.17 1.83,-0.52l0.92 -3.8c0.26,-1.05 0.96,-1.83 2.1,-2.36 2.53,0.26 4.72,2.21 6.55,5.83 1.84,3.63 3.32,5.83 4.46,6.62 0.26,-0.26 0.52,-1.29 0.79,-3.08 0.26,-1.79 1.09,-2.69 2.49,-2.69 2.36,2.64 4.08,7.19 5.18,13.63 1.09,6.47 1.81,10.09 2.16,10.88l0 -5.11 0 -2.36 0 -3.41 -0.52 -3.67c0.87,-1.14 1.31,-2.31 1.31,-3.54 0,-0.87 -0.44,-2.32 -1.31,-4.32l-1 -3.93c-1.94,-1.05 -2.93,-3.15 -2.93,-6.29 0,-3.06 -0.31,-5.22 -0.92,-6.49 -0.61,-1.27 -1.92,-2.29 -3.93,-3.08l-6.55 -2.36zm-12.91 23.2c-0.9,0 -1.62,0.48 -2.16,1.44l-0.79 2.49 0 50.46c0.96,-0.79 1.79,-1.18 2.49,-1.18 1.05,0 2.51,0.98 4.39,2.95 1.88,1.97 3.17,3.17 3.87,3.6l0 -55.83 -1.62 -3.28 -1.2 1.57 -1.62 1.7c-1.09,0.09 -1.94,-0.48 -2.56,-1.7l-0.81 -2.23zm-0.79 56.75c-0.72,0.35 -1.27,0.83 -1.62,1.44 -0.37,0.61 -0.55,1.35 -0.55,2.23l0.79 2.62 0 2.88 0 1.84 1.94 -0.52c1.03,0 1.73,0.87 2.05,2.62l1.16 4.85 2.07 -0.39 0.79 -3.93c0.5,-2.01 0.76,-3.54 0.76,-4.59 -0.81,-2.27 -1.75,-4.15 -2.84,-5.64 -0.7,-1.22 -2.23,-2.36 -4.57,-3.41zm13.96 -69.46l2.88 -1.31c0,1.05 -0.26,1.83 -0.79,2.36 -0.52,0.52 -1.31,0.74 -2.36,0.66 -0.61,-0.26 -1.18,-0.7 -1.7,-1.31l-0.92 -2.36c0.79,-0.26 1.31,0 1.57,0.79 0.26,0.79 0.7,1.18 1.31,1.18zm-29.23 5.64c-1.14,0.26 -2.36,-0.26 -3.67,-1.57l0.39 -1.18c0.96,0 1.75,0.35 2.36,1.05l0.92 1.7zm140.89 -16.03c0.26,1.38 0.7,2.31 1.31,2.82 0.61,0.5 1.35,0.76 2.23,0.76 0.7,0 1.97,-0.31 3.8,-0.92l3.8 -0.92c0.7,0 1.35,0.22 1.97,0.66 0.61,0.44 1.18,1.22 1.7,2.36l0.52 2.75c0,0.87 0,1.57 0,2.1l-1.18 3.28 0.39 3.54 -0.26 5.11 -0.26 3.8 0.13 2.75 -1.31 0.92 -26.34 0.39c-0.52,0.44 -1,1.66 -1.44,3.67 -0.26,1.84 -0.79,3.01 -1.57,3.54l-2.88 -3.15 -2.23 -3.28c-0.26,0.7 -0.44,1.27 -0.52,1.7 -0.09,0.44 -0.13,1.22 -0.13,2.36l0 4.98 0.66 3.41c0.79,-1.05 1.79,-1.62 3.01,-1.7l3.41 0.92c1.57,0.52 2.71,0.79 3.41,0.79l1.44 1.7c0.44,0.52 0.87,0.79 1.31,0.79 0.61,-0.26 1,-0.5 1.18,-0.72 0.17,-0.22 0.57,-0.42 1.18,-0.59l1.44 0.39 1.44 0.39c0.26,0.79 0.46,1.57 0.59,2.36 0.13,0.79 0.28,1.57 0.46,2.36l0.26 5.11 -0.13 5.63 0 1.97c0,0.61 0,1.18 0,1.7 -0.17,0.79 -0.26,1.35 -0.26,1.7l-18.46 0.52 -0.94 1.18 0 34.86 -1.16 0.92 -23.09 0 -0.92 -2.62 -0.52 -86.63c-0.96,-0.52 -1.44,-1.53 -1.44,-3.01l0.26 -2.88c0.61,-1.22 1.53,-2.45 2.75,-3.67l4.85 -4.46c0.7,0.52 1.68,0.96 2.95,1.31 1.27,0.35 2.86,0.52 4.78,0.52 3.84,0 6.51,0.83 7.99,2.49l16.25 -5.9 2.23 0c0.87,0 1.79,0.46 2.75,1.38l4.59 0.55zm-9.96 0.44c-1.31,0 -3.06,0.66 -5.26,1.97 -2.21,1.31 -3.82,2.25 -4.85,2.82 -1.05,0.57 -1.77,0.94 -2.21,1.11l-2.42 0.52c-0.9,0 -2.12,-0.39 -3.65,-1.18l-3.1 -1.7 -2.42 0.39c-1.25,0 -2.69,-0.22 -4.3,-0.66l-3.36 -0.79 -1.88 0.39c-0.57,0.26 -1.22,1 -1.92,2.23 -0.7,1.22 -1.14,2.36 -1.31,3.41 0,1.57 1.79,3.23 5.37,4.98 3.58,1.75 5.77,3.23 6.55,4.46 0.44,-0.44 1.09,-0.79 1.97,-1.05l2.49 -0.26 2.62 0 1.31 -0.13c0.7,1.29 2.31,3.34 4.85,6.2 2.53,2.86 3.8,5.55 3.8,8.08l0 -1.05 0.79 -1.05 -0.13 -1.57c0,-1.92 0.39,-4.02 1.18,-6.29l2.36 -6.31 1.31 -0.5c0.44,0 0.92,0.57 1.44,1.7 0.52,1.14 1,1.88 1.44,2.23l6.42 -1.05c2.27,-0.44 3.98,-1.53 5.11,-3.28 1.22,-0.09 2.49,0.61 3.8,2.1l4.32 5.11 0.39 -5.9 1.97 -7.6c-0.44,-2.1 -1.48,-3.15 -3.15,-3.15 -0.7,0 -1.55,0.22 -2.56,0.66 -1,0.44 -1.99,0.76 -2.95,0.98 -0.96,0.22 -1.62,0.37 -1.97,0.46l-1.57 -0.39c0,-2.88 -1.59,-4.32 -4.78,-4.32 -2.95,0 -4.85,-0.52 -5.7,-1.57zm-9.04 43.9l-2.62 7.6c0.26,0.61 0.83,1.18 1.7,1.7 0.52,0.17 1.27,0.26 2.23,0.26l1.84 -0.52c0.96,0 2.07,0.98 3.34,2.95 1.27,1.97 2.64,3.04 4.13,3.21 0.52,-2.97 1.79,-5.64 3.8,-8l0.39 -2.1c0,-0.96 -0.66,-1.53 -1.97,-1.7l-2.49 0.13 -1.44 0.13c-1.4,0 -2.4,-0.44 -3.01,-1.31 -0.26,-0.87 -0.87,-1.48 -1.84,-1.83 -0.96,-0.35 -1.79,-0.52 -2.49,-0.52 -0.7,0 -1.22,0 -1.57,0zm99.08 -24.25c0.96,2.18 1.62,4.37 1.97,6.55l0.52 7.34c0,3.15 -0.24,6.14 -0.72,8.98 -0.48,2.84 -1.57,5.05 -3.28,6.62 -1.7,1.57 -3.87,3.1 -6.49,4.59 0.17,0.79 0.79,1.4 1.84,1.83 1.07,0.44 2.12,1.46 3.12,3.08 1.03,1.62 1.81,3.87 2.36,6.75 0.55,2.88 0.92,5.29 1.07,7.21 0.17,1.92 0.26,4.15 0.26,6.68l0 7.86 0 3.01c0,0.79 0,1.57 0,2.36 -0.09,1.05 -0.13,1.84 -0.13,2.36 0,2.97 -0.72,4.98 -2.16,6.03 -1.44,1.05 -3.6,1.57 -6.49,1.57l-4.06 0 -1.57 0c-0.44,0 -1.27,-0.13 -2.49,-0.39l-1.57 0.39 -1.18 0 -2.88 -1.73 -2.23 -2.51 -0.39 -8.87 0 -6.68 0 -6.6 0 -1.57c0,-2.9 -0.07,-4.94 -0.2,-6.07 -0.13,-1.16 -0.42,-2.73 -0.83,-4.76l-2.47 -0.79 -2.97 0 -4.15 0 -0.66 1.31 0 38.27 -25.03 0 0 -93.81 3.01 -6.71c1.49,-2.53 3.28,-3.8 5.37,-3.8 1.14,0 2.21,0.28 3.21,0.85 1,0.57 2.03,1.62 3.08,3.15 1.05,1.53 2.01,2.29 2.88,2.29 0.61,0 1.33,-0.17 2.16,-0.52 0.83,-0.35 2.32,-1.16 4.46,-2.43 2.14,-1.27 4,-1.99 5.57,-2.16l2.36 0.39c0.52,0.35 1.33,1.53 2.42,3.54 1.09,2.01 2.12,3.06 3.08,3.15l1.31 -0.39c0.44,-0.79 0.9,-1.57 1.38,-2.36 0.48,-0.79 1.16,-1.73 2.03,-2.82 0.87,-1.09 2.1,-2.16 3.67,-3.21 2.64,-0.26 4.65,1.29 6.01,4.65 1.38,3.36 3.26,4.91 5.64,4.65l1.84 4.19c1.24,2.71 1.86,4.81 1.86,6.29l-0.52 2.23zm-12.71 -19.26l-1.7 0c-1.31,0 -2.88,1.53 -4.72,4.59 -1.84,3.06 -2.93,4.72 -3.28,4.98 -1.92,0.52 -3.58,-0.52 -4.98,-3.15 -1.14,-2.8 -2.01,-4.46 -2.62,-4.98 -1.57,-0.26 -3.49,0.31 -5.77,1.7l-3.93 2.49c-1.31,1.05 -2.53,1.57 -3.67,1.57 -0.79,0 -2.14,-1.09 -4.06,-3.28 -1.92,-2.18 -3.49,-3.28 -4.72,-3.28 -0.79,0 -1.53,0.17 -2.23,0.52 -0.96,0.7 -1.83,1.79 -2.62,3.28l-2.23 5.5c0.17,0.26 0.35,0.66 0.52,1.18 0.17,0.52 0.35,1.16 0.52,1.9 0.17,0.74 0.87,1.07 2.1,0.98 1.57,0.26 2.62,0.83 3.15,1.7 0.52,0.61 0.83,1.62 0.92,3.01l-0.66 3.54 0 2.49 0.66 2.1 0.79 0c0.52,-0.52 0.83,-1.22 0.92,-2.1 0.52,-0.26 2.01,-2.01 4.5,-5.24 2.47,-3.23 4.57,-5.07 6.31,-5.5 1.66,1.14 3.1,2.34 4.37,3.6 1.27,1.27 3.89,4.61 7.88,10.03 0.35,-1.57 0.68,-2.75 0.98,-3.54 0.31,-0.79 0.92,-2.18 1.84,-4.19 0.9,-2.01 2.05,-3.98 3.45,-5.9 1.11,1.22 2.25,2.71 3.39,4.46l2.86 4.59c0.87,-0.09 1.59,-0.92 2.16,-2.49 0.57,-1.57 1.27,-2.49 2.14,-2.75 2.8,0.26 4.83,2.75 6.14,7.47 1.05,4.72 1.9,7.47 2.6,8.26 0.52,-0.52 0.83,-1.4 0.92,-2.62l-0.13 -2.62c0,-1.14 -0.09,-2.05 -0.26,-2.75 0,-1.22 0.26,-2.23 0.79,-3.01 -0.52,-0.61 -0.98,-1.51 -1.38,-2.69 -0.39,-1.18 -0.59,-2.49 -0.59,-3.93 0,-1.53 -0.17,-2.82 -0.52,-3.89 -0.35,-1.05 -0.83,-1.97 -1.44,-2.73l-1.57 0.26c-1.14,0 -2.49,-1.53 -4.06,-4.57 -1.4,-3.06 -2.31,-4.72 -2.75,-5zm-21.89 26.87l-0.52 14.28c1.14,-1.92 2.45,-2.88 3.93,-2.88 0.61,0 1.7,0.28 3.28,0.85 1.57,0.57 2.71,0.85 3.41,0.85l1.57 -0.39 0.39 -3.8c0,-2.71 -0.65,-4.85 -1.97,-6.42l-1.97 2.49c-1.05,-0.26 -2.12,-1.18 -3.21,-2.75 -1.09,-1.57 -2.16,-2.45 -3.21,-2.62l-1.7 0.39zm1.18 16.77l-0.39 3.01 0.39 3.41c0.79,0 1.46,-0.48 2.03,-1.44 0.57,-0.96 1.16,-1.49 1.77,-1.57l2.62 2.49c0.44,-0.44 0.74,-1.09 0.92,-1.97l-0.39 -2.36c0,-0.52 0.26,-1.05 0.79,-1.57 -0.7,0 -1.62,-0.35 -2.75,-1.05l-2.62 -1.05c-0.96,0 -1.75,0.7 -2.36,2.1zm-12.19 -33.68l-0.39 0.79 -0.79 0.92 -1.44 0 0 -2.1 2.62 0.39zm78.5 -8.65l0.92 23.11 0 76.36 -1.7 1.31 -22.8 0 -0.92 -2.49 0.52 -91.17c0.7,-3.52 1.44,-6.09 2.23,-7.75 0.79,-1.68 2.31,-2.82 4.59,-3.43l1.44 1.05 2.1 0 3.8 -0.46 4.32 -0.59c1.22,0 2.29,0.28 3.21,0.85 0.92,0.57 1.68,1.64 2.29,3.21zm-15.47 -1.97l1.31 2.49 -3.01 0.92c-0.46,-0.07 -0.72,-0.42 -0.79,-1.05l0 -1.57c-1.31,0.79 -2.25,1.79 -2.82,3.01 -0.57,1.22 -0.85,2.62 -0.85,4.19 0,1.66 0.31,3.76 0.92,6.29l1.05 4.59c0.96,0.52 1.62,1.22 1.97,2.1l0.52 2.49 -0.79 4.06 -0.66 3.67c0,0.96 0.15,1.77 0.44,2.42 0.31,0.66 1.05,1.42 2.23,2.29 0.33,-0.61 0.68,-1.53 1,-2.75l0.39 -1.97 -0.39 -2.75c0,-1.22 0,-2.18 0,-2.88l0.39 -2.62c0.26,-0.87 0.85,-1.66 1.77,-2.36 1.33,0 2.42,0.57 3.23,1.7l3.39 6.03c1.92,-2.95 3.3,-6.51 4.13,-10.64 0.83,-4.13 1.25,-8.72 1.25,-13.76 -0.35,-1.4 -0.92,-2.36 -1.7,-2.93 -0.79,-0.57 -1.84,-0.9 -3.15,-0.98l-3.28 0 -3.54 0.66c-1.22,0 -2.23,-0.22 -3.01,-0.66zm9.31 9.44l0 0.65 -3.67 -0.52 -2.62 -1.18c0.7,-0.79 1.48,-1.18 2.36,-1.18 1.49,0 2.8,0.74 3.93,2.23zm67.5 -4.48c0.87,3.32 2.21,7.82 4,13.5 1.79,5.68 3.04,10.66 3.73,14.94 0,3.32 0.31,8.39 0.92,15.2l0.92 16.51c0,4.28 -0.26,8.19 -0.79,11.69 -0.52,3.49 -1.62,7.38 -3.28,11.66 -1.68,4.28 -5.7,8.17 -12.08,11.66 -6.49,1.75 -12.45,2.62 -17.87,2.62 -4.39,0 -8.28,-0.5 -11.69,-1.51 -3.43,-1 -7.14,-3.19 -11.16,-6.55 -4.04,-3.36 -6.44,-8.85 -7.23,-16.45l-1.2 -18.74 -0.11 -6.29 -0.13 -6.55c0,-2.01 0.04,-3.95 0.13,-5.83 0.09,-1.88 0.33,-4.13 0.72,-6.75 0.39,-2.62 1.29,-5.42 2.69,-8.39l-2.1 -10.35c0,-2.27 0.83,-4.11 2.49,-5.5l3.01 -2.49c1.66,-1.49 2.93,-2.23 3.8,-2.23 0.7,0 1.4,0.22 2.1,0.65l3.15 -2.1c0.96,-0.52 1.97,-0.79 3.01,-0.79 0.79,0 1.57,0.26 2.36,0.79l2.1 2.49c0.7,-0.17 1.97,-1.07 3.8,-2.69 1.84,-1.62 3.28,-2.47 4.32,-2.56l1.57 0.41c0.79,1.03 1.7,1.55 2.75,1.55 0.7,0 2.1,-0.83 4.19,-2.51 2.1,-1.66 3.67,-2.51 4.72,-2.51 0.79,0 1.66,0.31 2.62,0.92 0.96,0.26 1.9,0.57 2.82,0.92 0.92,0.35 1.94,0.9 3.08,1.59 1.14,0.7 2.01,1.92 2.62,3.67zm-12.45 -5.22l-6.95 6.95 -2.1 -2.05c-0.87,-0.72 -1.79,-1.18 -2.75,-1.35 -0.96,0 -2.25,1 -3.87,3.01 -1.62,2.01 -3.08,3.06 -4.39,3.15 -1.14,-2.18 -2.58,-3.28 -4.32,-3.28 -0.87,0 -2.23,0.42 -4.06,1.25 -1.84,0.83 -3.23,1.25 -4.19,1.25l-1.7 -0.39c-1.14,0.35 -1.92,0.74 -2.36,1.18l-3.8 5.07 1.84 7.47c0.96,1.59 1.92,2.4 2.88,2.4 0.52,0 1.46,-0.55 2.82,-1.64 1.35,-1.09 2.47,-1.73 3.34,-1.9 0.79,0 1.66,0.52 2.62,1.57 1.31,-0.44 2.51,-1.57 3.6,-3.41 1.09,-1.84 1.9,-2.91 2.42,-3.21 0.52,-0.31 1.18,-0.55 1.97,-0.72 0.96,0 2.34,0.79 4.13,2.36 1.79,1.57 3.21,2.36 4.26,2.36 0.52,0 1.14,-0.17 1.83,-0.52l0.92 -3.8c0.26,-1.05 0.96,-1.83 2.1,-2.36 2.53,0.26 4.72,2.21 6.55,5.83 1.84,3.63 3.32,5.83 4.46,6.62 0.26,-0.26 0.52,-1.29 0.79,-3.08 0.26,-1.79 1.09,-2.69 2.49,-2.69 2.36,2.64 4.08,7.19 5.18,13.63 1.09,6.47 1.81,10.09 2.16,10.88l0 -5.11 0 -2.36 0 -3.41 -0.52 -3.67c0.87,-1.14 1.31,-2.31 1.31,-3.54 0,-0.87 -0.44,-2.32 -1.31,-4.32l-1 -3.93c-1.94,-1.05 -2.93,-3.15 -2.93,-6.29 0,-3.06 -0.31,-5.22 -0.92,-6.49 -0.61,-1.27 -1.92,-2.29 -3.93,-3.08l-6.55 -2.36zm-12.91 23.2c-0.9,0 -1.62,0.48 -2.16,1.44l-0.79 2.49 0 50.46c0.96,-0.79 1.79,-1.18 2.49,-1.18 1.05,0 2.51,0.98 4.39,2.95 1.88,1.97 3.17,3.17 3.87,3.6l0 -55.83 -1.62 -3.28 -1.2 1.57 -1.62 1.7c-1.09,0.09 -1.94,-0.48 -2.56,-1.7l-0.81 -2.23zm-0.79 56.75c-0.72,0.35 -1.27,0.83 -1.62,1.44 -0.37,0.61 -0.55,1.35 -0.55,2.23l0.79 2.62 0 2.88 0 1.84 1.94 -0.52c1.03,0 1.73,0.87 2.05,2.62l1.16 4.85 2.07 -0.39 0.79 -3.93c0.5,-2.01 0.76,-3.54 0.76,-4.59 -0.81,-2.27 -1.75,-4.15 -2.84,-5.64 -0.7,-1.22 -2.23,-2.36 -4.57,-3.41zm13.96 -69.46l2.88 -1.31c0,1.05 -0.26,1.83 -0.79,2.36 -0.52,0.52 -1.31,0.74 -2.36,0.66 -0.61,-0.26 -1.18,-0.7 -1.7,-1.31l-0.92 -2.36c0.79,-0.26 1.31,0 1.57,0.79 0.26,0.79 0.7,1.18 1.31,1.18zm-29.23 5.64c-1.14,0.26 -2.36,-0.26 -3.67,-1.57l0.39 -1.18c0.96,0 1.75,0.35 2.36,1.05l0.92 1.7z"/>
   <path class="fil2" d="M260.32 0l10.01 0c2.37,0 4.08,0.51 5.02,1.51 0.94,1 0.84,2.19 -0.28,3.52l-14.99 17.7c-1.94,2.29 -6.43,3.99 -10.52,3.99l-2.72 0c-4.09,0 -6.4,-1.7 -5.41,-3.99l7.7 -17.7c0.58,-1.32 2.02,-2.52 4.23,-3.52 2.21,-0.99 4.58,-1.51 6.95,-1.51z"/>
   <path class="fil3" d="M257.15 3.14c-1,1.56 -3.75,-0.09 -4.58,2.36 -0.01,0.02 -1.99,3.37 -2.24,3.89 -1.06,2.23 -1.26,2.06 -1.43,4.59 -0.06,0.86 -1.89,3.76 2.3,0.98 3.56,-2.37 1.42,-3.68 4.92,-0.43 0.52,0.48 2.84,1.63 2.84,-0.98 0,-1.1 1.78,-2.23 2.52,-0.58 1.12,2.5 4.08,-3.7 5.69,-3.7 1.13,0 1.97,-2.54 3.35,-3.96 0.68,-0.69 4.06,-2.25 -0.06,-2.64 -1.65,-0.16 -10.42,-0.56 -12.1,0.13 -0.2,0.08 -1.19,0.3 -1.2,0.32z"/>
   <path class="fil2" d="M744.32 0l10.01 0c2.37,0 4.08,0.51 5.02,1.51 0.94,1 0.84,2.19 -0.28,3.52l-14.99 17.7c-1.94,2.29 -6.43,3.99 -10.52,3.99l-2.72 0c-4.09,0 -6.4,-1.7 -5.41,-3.99l7.7 -17.7c0.58,-1.32 2.02,-2.52 4.23,-3.52 2.21,-0.99 4.58,-1.51 6.95,-1.51z"/>
   <path class="fil3" d="M741.15 3.14c-1,1.56 -3.75,-0.09 -4.58,2.36 -0.01,0.02 -1.99,3.37 -2.24,3.89 -1.06,2.23 -1.26,2.06 -1.43,4.59 -0.06,0.86 -1.89,3.76 2.3,0.98 3.56,-2.37 1.42,-3.68 4.92,-0.43 0.52,0.48 2.84,1.63 2.84,-0.98 0,-1.1 1.78,-2.23 2.52,-0.58 1.12,2.5 4.08,-3.7 5.69,-3.7 1.13,0 1.97,-2.54 3.35,-3.96 0.68,-0.69 4.06,-2.25 -0.06,-2.64 -1.65,-0.16 -10.42,-0.56 -12.1,0.13 -0.2,0.08 -1.19,0.3 -1.2,0.32z"/>
  </g>
 </g>
</svg>
