<?xml version="1.0" encoding="utf-8"?>
<!-- Generator: Adobe Illustrator 24.1.2, SVG Export Plug-In . SVG Version: 6.00 Build 0)  -->
<svg version="1.1" id="Layer_1" xmlns="http://www.w3.org/2000/svg" xmlns:xlink="http://www.w3.org/1999/xlink" x="0px" y="0px"
	 viewBox="0 0 600 78" style="enable-background:new 0 0 600 78;" xml:space="preserve">
<style type="text/css">
	.st0{fill:#FFFFFF;}
</style>
<g>
	<polygon class="st0" points="314.4,52.6 331.1,52.6 342.2,14.1 364.9,14.1 368.6,1.1 306.1,1.1 302.5,14.1 325.5,14.1 	"/>
	<path class="st0" d="M225.3,52.7h15.9l3.7-12.9H267c3.2,0,5.5,0.2,6.4,0.4c1,0,1.7,0.5,2.1,0.9c0.3,0.7,0.6,1.9,0.5,3
		c-0.2,0.9-0.7,3.3-1.6,6.1l-0.7,2.4h15.5l1.3-4.6c1.3-4.4,1.9-7.4,2.1-8.9c0.4-1.4,0-2.6-0.7-3.5c-0.9-1.6-2.9-2.7-6.1-2.7
		c2.8-0.5,5.2-1.4,6.7-2.3c1.7-0.9,3.1-2.6,4.1-4.5c0.9-1.6,2-4.4,3.1-8.1c1.2-4.5,1.8-7.9,1.7-10.1c-0.2-1.8-1-3.7-2.6-4.9
		c-1.4-0.9-3-1.6-4.6-1.6c-1.6,0-6.9-0.5-15.7-0.5h-38.3l-13.2,46.2L225.3,52.7z M252.2,14.2h22.2c3.3,0,5.5,0.2,6.3,0.2
		c0.7,0,1.6,0.2,1.9,0.5c0.6,0.2,1.1,1,1,1.8c0,0.7-0.2,2.1-0.5,3.7c-0.5,1.6-1.1,3.1-1.6,3.8c-0.5,0.8-1.4,1.4-2,1.9
		c-0.5,0.2-1.5,0.7-2.2,0.7h-28.7L252.2,14.2z"/>
	<path class="st0" d="M155.1,44.1c-0.1,1.8,0.2,3.4,1,4.7c1.3,2.1,3.7,3.4,7.3,3.7c4,0.5,11.6,0.6,22.7,0.6c2.6,0,4.9-0.1,7.2-0.1
		c7-0.1,12.2-0.2,15.4-0.6c6.2-0.6,10.7-3.6,13.2-8.4c1.9-3.2,4.2-9.2,6.5-17c0.6-2.3,1.2-4.4,1.6-6.3c1.1-4.5,1.6-8.1,1.6-10.3
		c0.2-2.2-0.4-4-1.5-5.4c-1.3-1.6-3.6-2.7-6.8-3.1c-3.9-0.4-11.4-0.9-22.4-0.9c-2.7,0-5.2,0.1-7.5,0.1c-7.1,0.1-12.2,0.5-15.3,0.8
		c-6.2,0.8-10.7,3.7-13.2,8.5c-1.9,3.2-3.8,8.7-6.1,16.5c-1.1,3.8-1.9,7-2.5,9.9C155.5,39.9,155.1,42.4,155.1,44.1z M172.3,35.2
		c0.1-1.4,0.5-3.7,1.5-6.7c1.4-5,2.8-8.4,3.8-10.3c0.9-1.6,2.7-2.7,4.6-3.2c1.4-0.4,5.2-0.6,11.1-0.7h3.7c7.1,0,11.8,0.2,13.6,0.4
		c1.8,0.2,2.9,1.1,3.3,2c0.2,0.9,0.5,2.3,0.2,3.9c-0.2,1.6-0.8,4.5-1.9,8c-0.9,3.1-1.7,5.4-2.6,6.7c-0.6,1.2-1.6,2.3-2.7,3.1
		c-1.2,0.7-2.9,1.4-5,1.4c-1.5,0-4.5,0.1-8.8,0.2c-1.1,0-2.3,0-3.6,0c-6.4,0-10.9-0.2-13.2-0.2C173.6,39.4,172,37.7,172.3,35.2z"/>
	<path class="st0" d="M84.8,52.8h15.8l3.6-12.5h20.3c5.8,0,9.9-0.2,12.2-0.2c3.1-0.2,5.9-0.9,8-1.9c1.9-0.9,4-2.3,5.3-4
		c2.2-2.5,4.5-7.3,6.3-13.5c0.3-1.1,0.6-2.2,0.9-3.3c1.3-5.1,1.4-8.8,0.4-11c-0.1-0.2-0.2-0.5-0.4-0.7c-1.4-2-4.2-3.6-8.7-4.2
		c-1.8-0.3-6.3-0.5-13.4-0.5H99.5L86.4,46.9L84.8,52.8z M111.7,14.2h19.7c4.6,0,7.5,0.5,7.9,0.7c0.9,0.2,1.6,0.9,1.8,1.8
		c0,0.7-0.2,2.1-0.6,4c-0.5,1.6-1.2,3-1.6,3.9c-0.5,1-1.4,1.6-2.4,1.9c-0.6,0.2-1.6,0.6-2.3,0.6h-26.1L111.7,14.2z"/>
	<path class="st0" d="M24.3,50.7c1.6,0.9,4.1,1.6,7.7,1.9c3.6,0.3,9.3,0.5,16.8,0.5c9.1,0,15.5-0.2,18.7-0.2
		c3.1-0.3,5.8-0.9,7.9-1.8c1.7-0.7,3.5-2,4.9-3.7c2-2.3,3.8-6.1,5.1-10.7c0.9-3.4,1.4-6.3,0.9-8.2c-0.1-1.8-0.9-3.7-2.6-4.6
		c-1.1-0.9-3.4-1.6-6-1.8c-2.7-0.2-8.1-0.7-16-0.9c-9.5-0.2-15.1-0.6-16.2-0.9c-1.2-0.5-1.6-1.6-1.1-3.2c0.5-1.8,1.5-3,3-3.4
		c1.5-0.5,5.7-0.7,12.1-0.7c5.5,0,9.1,0.2,10.6,0.2c1.6,0,2.9,0.5,3.3,0.7c0.4,0.2,0.9,0.9,0.7,1.4c-0.1,0.5-0.1,1.3-0.4,2.5h14.9
		c0.1-0.2,0.1-0.4,0.2-0.6c0.3-0.7,0.5-1.3,0.6-1.7c1.4-4.6,1.4-8,0.1-9.8c-0.2-0.3-0.4-0.6-0.7-0.9c-1.4-1.4-4-2.6-7.7-3
		C78.5,1.3,73,1.1,65.7,1.1C55.2,1.1,48,1.5,44.5,2c-3.4,0.5-6.4,1.6-8.6,3.5c-2.7,2.2-5,6.3-6.6,12c-1.5,5.1-1.6,8.7-0.5,10.8
		c0.6,1.1,2.1,2.2,3.8,2.7c1.7,0.5,4.7,1.2,8.4,1.2c1.9,0,5.9,0.2,12.2,0.5c5.9,0.2,10.1,0.5,11.9,0.5c2.3,0,4,0.5,4.8,0.9
		c0.5,0.4,0.7,1.6,0.2,2.9c-0.5,1.9-1.5,3.2-2.9,3.7c-0.8,0.4-2.1,0.7-3.4,0.7H52.3c-6.1,0-9.9-0.2-11-0.2c-1.2,0-2.3-0.3-2.5-0.7
		c-0.7-0.7-1-2.5-0.3-4.8H23.7L23,38.1c-1,3.7-1.4,6.4-1.2,8.2C21.8,47.9,22.8,49.5,24.3,50.7z"/>
	<polygon class="st0" points="455.8,58.2 454.9,58.2 449.3,58.2 444.9,73.5 444,76.8 450.5,76.8 454.9,61.2 	"/>
	<path class="st0" d="M494.8,58.2l-14.3,16.5l-1.7,2h7.1l2.6-3.2h13.3l0.9,3.2h6.9l-5.2-18.5H494.8z M491.8,69.5l4.5-5.3l1.4-1.6
		h1.3l1.9,6.9H491.8z"/>
	<path class="st0" d="M480.6,69.8L480.6,69.8c0.1-0.1,0.1-0.1,0.1-0.2h-0.1l0,0h-6.1c-0.3,1.2-0.7,2-1.2,2.3c-0.4,0.2-1,0.4-1.8,0.4
		s-2.4,0.1-4.6,0.1c-1.9,0-3.3-0.1-4.1-0.1c-0.8,0-1.3-0.2-1.4-0.5c-0.4-0.2-0.5-0.7-0.5-1.3c0.1-0.5,0.3-1.5,0.6-2.8
		c0.4-1.4,0.8-2.5,1.1-3.2c0.2-0.6,0.7-1.1,1-1.4c0.4-0.1,1.1-0.4,1.9-0.4c0.7,0,2.1-0.1,3.9-0.1c1.9,0,3.4,0.1,4.3,0.2
		c1,0.2,1.6,0.2,1.7,0.4c0,0.2,0.2,0.4,0.2,0.5c-0.1,0.2,0,0.7-0.2,1.2h6.1c0.1-0.5,0.4-0.9,0.4-0.9c0.4-1.6,0.5-2.7,0.4-3.4
		c-0.2-0.8-0.6-1.5-1.4-1.8c-0.1-0.1-0.2-0.1-0.3-0.1c-0.6-0.2-1.4-0.4-2.4-0.5c-1.1,0-3.1-0.1-5.6-0.1c-5.2,0-8.8,0.2-10.6,0.6
		c-1.7,0.2-3.1,1-4,2.2c-0.4,0.5-0.9,1.3-1.1,2.2c-0.3,0.9-0.8,2.5-1.5,4.7c-0.2,0.6-0.4,1.2-0.5,1.7c-0.3,1.3-0.5,2.2-0.7,2.8
		c-0.2,1-0.2,2,0.1,2.5c0.1,0.3,0.3,0.7,0.6,1c0.2,0.2,0.4,0.2,0.5,0.4c0.7,0.3,1.9,0.6,3.5,0.6c1.5,0.1,4.3,0.2,8.2,0.2
		c3.6,0,6.3-0.2,7.8-0.5c1.6-0.2,2.7-0.9,3.5-1.8c0.7-0.8,1.3-2,1.7-3.4C480.2,71.2,480.3,70.6,480.6,69.8z"/>
	<path class="st0" d="M444.3,67.2c0.2-0.4,0.5-0.9,0.7-1.6v-0.3c0.1-0.3,0.2-0.7,0.4-1.1c0.4-1.6,0.5-2.9,0.5-3.6
		c-0.1-0.6-0.4-1.3-0.9-1.6V59c-0.1-0.1-0.2-0.1-0.2-0.1c-0.6-0.4-1.2-0.5-1.8-0.5c-0.7,0-2.7-0.2-6.2-0.2H422l-3.7,13l-1.6,5.6h6.1
		l1.4-4.7h8.6c1.3,0,2.2,0.1,2.5,0.1c0.5,0,0.8,0.2,0.8,0.4c0.2,0.2,0.3,0.7,0.2,1.1c0,0.4-0.2,1.2-0.4,2.2l-0.3,0.9h6l0.5-1.7
		c0.5-1.6,0.8-2.7,0.8-3.2c0.1-0.5-0.1-1-0.3-1.3c-0.4-0.5-1.2-0.9-2.4-0.9c1.1-0.2,2-0.5,2.6-0.8C443.4,68.5,443.9,67.9,444.3,67.2
		z M438.9,65.1c-0.1,0.5-0.3,1.1-0.5,1.3c-0.2,0.3-0.5,0.5-0.8,0.7c-0.2,0-0.6,0.2-0.9,0.2h-11.2l1.3-4.4h8.6c1.3,0,2.2,0,2.5,0
		c0.3,0,0.6,0.1,0.7,0.1c0.2,0.1,0.5,0.4,0.5,0.7C439.2,64,439.1,64.5,438.9,65.1z"/>
	<polygon class="st0" points="394.7,58.2 383.7,58.2 374.2,70.3 371.6,58.2 360.5,58.2 355.3,76.8 361.2,76.8 365,62.9 366.1,62.9 
		369.8,76.8 374.9,76.8 386.5,62.9 387.5,62.9 383.4,76.8 389.5,76.8 393.5,62.3 	"/>
	<polygon class="st0" points="400.4,69.3 415.9,69.3 417.1,65.2 401.6,65.2 402.4,62.6 418.6,62.6 419.9,58.2 397.5,58.2 
		393.5,72.6 392.4,76.8 414.8,76.8 416.1,72.3 399.7,72.3 	"/>
	<path class="st0" d="M339.4,58.2l-15.9,18.6h7l2.7-3.2h13.4l0.9,3.2h6.8l-5.3-18.6L339.4,58.2L339.4,58.2z M336.4,69.5L336.4,69.5
		l4.6-5.4l1.3-1.5h1.3l1.9,6.9L336.4,69.5L336.4,69.5z"/>
	<polygon class="st0" points="332.6,58.3 17.6,58.4 11,68.4 324.1,68.2 	"/>
	<polygon class="st0" points="7.1,75.1 318.7,75.2 322,70.9 9.8,70.9 	"/>
	<polygon class="st0" points="589.4,13.1 592.9,1.1 536.1,1.1 524.6,41.3 521.4,52.4 578.5,52.4 582,40.1 540.1,40.1 542.5,31.9 
		581.8,31.9 585.1,20.5 545.7,20.5 547.9,13.1 	"/>
	<polygon class="st0" points="444.8,12.7 448.1,1.1 431.5,1.1 416.7,52.4 433.4,52.4 	"/>
	<polygon class="st0" points="441.5,52.4 457.3,52.4 468.1,14 469.7,14 485.7,52.4 513,52.4 524.6,12.2 527.8,1.1 511.8,1.1 
		501.1,39.5 499.4,39.5 483.7,1.1 456.2,1.1 444.8,40.9 	"/>
	<polygon class="st0" points="412.1,52.4 415.8,39.5 379.5,39.5 390.5,1.1 373.8,1.1 359.1,52.4 	"/>
	<polygon class="st0" points="523.1,57.4 518.3,64 511.1,64.8 514.9,69.6 511.4,76.6 518.7,73.1 523.7,76.6 524.3,69.6 530.9,64.8 
		524.1,64 	"/>
	<polygon class="st0" points="543,57.4 538.3,64 531.1,64.8 534.9,69.6 531.3,76.6 538.6,73.1 543.7,76.6 544.2,69.6 550.8,64.8 
		544,64 	"/>
	<polygon class="st0" points="564.2,64.2 563.2,57.8 558.5,64.2 551.5,65 555.2,69.8 551.7,76.6 558.8,73.1 563.8,76.6 564.4,69.8 
		570.9,65 	"/>
	<path class="st0" d="M578.2,72c-0.2-0.3-0.4-0.5-0.8-0.7c0.6,0,1.2-0.3,1.5-0.8c0.4-0.3,0.5-0.7,0.5-1.4c0-0.4-0.2-0.9-0.4-1.2
		c-0.2-0.3-0.5-0.6-0.9-0.7c-0.4-0.2-1-0.3-1.8-0.3h-3.3v7.8h1.6v-3.2h0.2c0.5,0,0.7,0,0.9,0.2c0.1,0,0.3,0.1,0.4,0.3
		c0.2,0.1,0.5,0.5,0.9,1.1l1.1,1.6h1.9l-0.9-1.5C578.8,72.6,578.4,72.2,578.2,72z M576.2,70.3h-1.6v-2.1h1.6c0.5,0,0.7,0,0.8,0
		c0.3,0.1,0.4,0.2,0.6,0.3c0.1,0.2,0.2,0.4,0.2,0.7c0,0.2-0.1,0.4-0.1,0.6c-0.2,0.2-0.2,0.3-0.5,0.3
		C577.1,70.2,576.7,70.3,576.2,70.3z"/>
	<path class="st0" d="M576.5,65h-0.4c-3,0.2-5.4,2.7-5.4,5.8c0,3.1,2.4,5.6,5.4,5.8h0.4c3.2,0,5.9-2.6,5.9-5.8
		C582.4,67.6,579.8,65,576.5,65z M576.5,76.1h-0.4c-2.8-0.2-5-2.4-5-5.3s2.2-5.2,5-5.4h0.4c3,0,5.3,2.4,5.3,5.4
		C581.9,73.8,579.6,76.1,576.5,76.1z"/>
</g>
</svg>
