<svg xmlns="http://www.w3.org/2000/svg" width="586.977" height="200" viewBox="0 0 586.977 200">
  <g id="paiz_logo_blanco" transform="translate(-83.336 -119.141)">
    <g id="Grupo_6" data-name="Grupo 6" transform="translate(83.713 119.141)">
      <path id="Trazado_47" data-name="Trazado 47" d="M197.157,128.5c9.089-.33,12.067,2.436,12.232,7.2s-5.423,9.3-13.994,9.617c-8.613.3-11.162-3.925-11.271-6.776s3.011-9.692,13.033-10.046" transform="translate(288.991 -84.496)" fill="#fff"/>
      <path id="Trazado_48" data-name="Trazado 48" d="M402.116,146.565l9.6.5s-5.857,36.22-112.133,61.523c-83.509,19.465-174.622.391-174.622.391l12.458-13.3c41.884,7.982,68.341,11.511,109.424,10.041s92.273-15.017,117.166-28.752c24.869-13.74,38.11-30.41,38.11-30.41" transform="translate(69.384 -17.346)" fill="#fff"/>
      <path id="Trazado_49" data-name="Trazado 49" d="M243.373,144.994s-16.02,6.8-22.353,17.052c-6.347,10.291-8.576,27.588-25.779,28.2s-27.97-19.111-28.554-35.344c-.58-16.251,13.942-25.845,35.9-26.632s37.045,5.857,40.781,16.722" transform="translate(224.215 -85.482)" fill="#fd9e27"/>
      <path id="Trazado_50" data-name="Trazado 50" d="M224.462,164.776c-14.319-12.416-29.421-6.62-36.1-6.38s-16.388-2.747-16.591-8.5c-.476-13.353,21.915-29.5,55.336-30.688,18.664-.669,28.365,3.312,28.761,14.305s-15.238,28.281-31.4,31.259" transform="translate(243.112 -119.141)" fill="#fd9e27"/>
      <path id="Trazado_51" data-name="Trazado 51" d="M190.092,163.027c-1-28.215,9.485-42.9,31.923-43.712,22.48-.8,40.291,16.242,40.753,29.143.221,6.22-1.55,9.136-9.2,9.414s-22.2-4.914-32.21-4.556a59.447,59.447,0,0,0-31.263,9.711" transform="translate(310.908 -118.594)" fill="#fd9e27"/>
      <path id="Trazado_52" data-name="Trazado 52" d="M189.959,145.937c7.727-11.285,16.638-16.85,40.975-17.731,24.4-.867,44.32,7.982,44.994,26.617S248,190.267,237.021,190.653c-11,.4-16.2-11.841-20.841-20.28-4.6-8.444-15.177-22.433-26.222-24.436" transform="translate(310.659 -85.705)" fill="#fd9e27"/>
      <path id="Trazado_53" data-name="Trazado 53" d="M223.924,132.975c21.514-.768,43.839,21.387,44.523,40.484.532,14.842-27.074,19.173-39.028,19.606s-52.278-4.391-52.8-19.177c-.744-20.553,33.45-40.419,47.307-40.913" transform="translate(261.089 -67.861)" fill="#fd9e27"/>
      <path id="Trazado_54" data-name="Trazado 54" d="M163.019,183.954c9.744,0,15.808-2.431,20.7-6.29a30.173,30.173,0,0,0,10.206-14c1.767-5.48,1.107-10.352-1.164-14.008-2.413-3.854-6.9-6.29-16.647-6.29H143.643l-13.1,40.593Zm-38.7,19.286-20.313,62.922H83.713L129.569,124.08H183.36c13.8,0,21.623,3.449,26.622,9.334,6.163,7.308,8.175,18.065,4.241,30.246S201.34,186.6,190.456,193.9c-8.8,5.885-18.843,9.339-32.644,9.339Z" transform="translate(-83.713 -100.807)" fill="#fff" stroke="#fff" stroke-miterlimit="10" stroke-width="0.549"/>
      <path id="Trazado_55" data-name="Trazado 55" d="M163.019,183.954c9.744,0,15.808-2.431,20.7-6.29a30.173,30.173,0,0,0,10.206-14c1.767-5.48,1.107-10.352-1.164-14.008-2.413-3.854-6.9-6.29-16.647-6.29H143.643l-13.1,40.593Zm-38.7,19.286-20.313,62.922H83.713L129.569,124.08H183.36c13.8,0,21.623,3.449,26.622,9.334,6.163,7.308,8.175,18.065,4.241,30.246S201.34,186.6,190.456,193.9c-8.8,5.885-18.843,9.339-32.644,9.339Z" transform="translate(-83.713 -100.807)" fill="#fff" stroke="#fff" stroke-miterlimit="10" stroke-width="0.481"/>
      <path id="Trazado_56" data-name="Trazado 56" d="M191.743,165.423c-3.4-7.713-11.238-13.6-22.81-13.6-18.471,0-35.429,14.819-40.8,31.461-5.508,17.048,3.034,31.457,21.505,31.457,9.744,0,21.265-4.867,30.575-13.594Zm-17.736,56.835a58.346,58.346,0,0,1-32.9,10.757c-8.524,0-16.671-2.436-21.92-6.3-11.657-8.524-16.5-24.356-10.338-43.434s21.481-35.113,38.647-43.641a56.83,56.83,0,0,1,25.307-6.088c10.757,0,20.058,3.246,26.363,10.757l2.818-8.731h18.673l-30.792,95.4H171.195Z" transform="translate(-0.389 -65.63)" fill="#fff" stroke="#fff" stroke-miterlimit="10" stroke-width="0.549"/>
      <path id="Trazado_57" data-name="Trazado 57" d="M191.743,165.423c-3.4-7.713-11.238-13.6-22.81-13.6-18.471,0-35.429,14.819-40.8,31.461-5.508,17.048,3.034,31.457,21.505,31.457,9.744,0,21.265-4.867,30.575-13.594Zm-17.736,56.835a58.346,58.346,0,0,1-32.9,10.757c-8.524,0-16.671-2.436-21.92-6.3-11.657-8.524-16.5-24.356-10.338-43.434s21.481-35.113,38.647-43.641a56.83,56.83,0,0,1,25.307-6.088c10.757,0,20.058,3.246,26.363,10.757l2.818-8.731h18.673l-30.792,95.4H171.195Z" transform="translate(-0.389 -65.63)" fill="#fff" stroke="#fff" stroke-miterlimit="10" stroke-width="0.481"/>
      <path id="Trazado_58" data-name="Trazado 58" d="M183.44,124.08c7.106,0,10.955,5.683,8.66,12.788s-9.744,12.581-16.85,12.581-10.814-5.48-8.524-12.581,9.612-12.788,16.713-12.788m-24.605,46.681h19.281l-30.787,95.4H128.042Z" transform="translate(80.831 -100.807)" fill="#fff" stroke="#fff" stroke-miterlimit="10" stroke-width="0.549"/>
      <path id="Trazado_59" data-name="Trazado 59" d="M183.44,124.08c7.106,0,10.955,5.683,8.66,12.788s-9.744,12.581-16.85,12.581-10.814-5.48-8.524-12.581S176.339,124.08,183.44,124.08Zm-24.605,46.681h19.281l-30.787,95.4H128.042Z" transform="translate(80.831 -100.807)" fill="#fff" stroke="#fff" stroke-miterlimit="10" stroke-width="0.481"/>
      <path id="Trazado_60" data-name="Trazado 60" d="M212.866,151.24H163.542l5.57-17.253h76.117L241.3,146.166,167.435,212.13h56.631l-5.57,17.255h-83.22l3.93-12.178Z" transform="translate(107.681 -64.031)" fill="#fff" stroke="#fff" stroke-miterlimit="10" stroke-width="0.549"/>
      <path id="Trazado_61" data-name="Trazado 61" d="M212.866,151.24H163.542l5.57-17.253h76.117L241.3,146.166,167.435,212.13h56.631l-5.57,17.255h-83.22l3.93-12.178Z" transform="translate(107.681 -64.031)" fill="#fff" stroke="#fff" stroke-miterlimit="10" stroke-width="0.481"/>
    </g>
  </g>
</svg>
