<?xml version="1.0" encoding="utf-8"?>
<!-- Generator: Adobe Illustrator 24.0.2, SVG Export Plug-In . SVG Version: 6.00 Build 0)  -->
<svg version="1.1" id="Capa_1" xmlns="http://www.w3.org/2000/svg" xmlns:xlink="http://www.w3.org/1999/xlink" x="0px" y="0px"
	 viewBox="0 0 247.6 42.2" style="enable-background:new 0 0 247.6 42.2;" xml:space="preserve">
<style type="text/css">
	.st0{fill:#FFFFFF;}
	.st1{enable-background:new    ;}
</style>
<g>
	<g>
		<g>
			<g>
				<g>
					<path class="st0" d="M47.9,4.8c-1-0.2-1.9-0.3-2.7-0.3c-2.1,0-3.3,0.8-3.3,2.7v1.6h4.8v4.3h-4.8v9.7c1.3,0.1,2.8,0.3,4,0.5v3.6
						H31v-3.6c1.2-0.2,2.6-0.3,4-0.5v-9.7h-4.3V8.8H35V7.3C35,2.4,37.9,0,44.4,0c1.2,0,2.5,0.1,3.8,0.3L47.9,4.8z"/>
					<path class="st0" d="M65.4,4.8c-1-0.2-2-0.3-2.7-0.3c-2.1,0-3.3,0.8-3.3,2.7v1.6h4.7v4.3h-4.7v9.7c1.3,0.1,2.8,0.3,4,0.5v3.6
						H48.5v-3.6c1.2-0.2,2.6-0.3,3.9-0.5v-9.7h-4.3V8.8h4.3V7.3c0-4.8,2.9-7.3,9.4-7.3c1.2,0,2.5,0.1,3.9,0.3L65.4,4.8z"/>
					<path class="st0" d="M65.7,26.8v-3.6c1.2-0.2,2.6-0.3,3.9-0.5V13c-1.1-0.1-2.6-0.3-3.9-0.3V9.1c3.3-0.3,7-0.4,10.9-0.3v14
						c1.3,0.1,2.6,0.3,3.6,0.5v3.6H65.7V26.8z M73.1,6.9c-2.3,0-4.2-1.5-4.2-3.3s1.9-3.3,4.2-3.3c2.3,0,4.2,1.4,4.2,3.3
						C77.3,5.4,75.4,6.9,73.1,6.9z"/>
					<path class="st0" d="M91.2,27.2c-7.3,0-11.2-3-11.2-8.8c0-5.4,3.6-9.9,12.2-9.9c1.7,0,3.6,0.2,5.2,0.6v6.2H93
						c-0.2-0.7-0.3-1.4-0.4-2c-0.3-0.1-0.8-0.1-1.2-0.1c-2.4,0-4.1,1.7-4.1,4.7c0,3.1,1.6,4.7,5.6,4.7c1.4,0,3-0.3,4.3-0.7l0.5,4.8
						C95.5,26.9,93.6,27.2,91.2,27.2z"/>
					<path class="st0" d="M119.4,19.2h-13.5c0.1,2.4,1.9,3.8,5.6,3.8c2.2,0,4.5-0.4,6.6-1.1l0.6,4.2c-2.5,0.8-5.6,1.3-8.3,1.3
						c-7.4,0-11.5-2.9-11.5-9.3c0-5.5,3.9-9.7,10.8-9.7c6.8,0,9.8,3.7,9.8,8.4C119.6,17.5,119.5,18.3,119.4,19.2z M109.6,12.4
						c-2,0-3.4,1.2-3.6,3.1h6.8C112.9,13.5,111.6,12.4,109.6,12.4z"/>
					<g>
						<path class="st0" d="M29.8,14c0,8.2-6.7,13.1-14.9,13.1S0,22.2,0,14C0,6,6.7,0.7,14.9,0.7S29.8,5.9,29.8,14z M8,13.9
							c0,4.2,2.6,7.5,6.9,7.5s6.9-3.3,6.9-7.5c0-3.9-2.4-7.6-6.9-7.6C10.4,6.3,8,10,8,13.9z"/>
					</g>
				</g>
			</g>
		</g>
		<path class="st0" d="M137.3,27c-2.8,0-5.9-0.2-6.9-0.2H127v-2.9c1-0.2,2.1-0.3,3.3-0.4V12.1c-1.2,0-2.3-0.2-3.3-0.3v-3h3.1
			c2.2,0,4.4-0.1,8.2-0.1c7.7,0,13.1,2.2,13.1,8.7C151.4,23.5,145.8,27,137.3,27z M138.3,12.6c-0.8,0-0.6,0-1.1,0.1V23
			c0.3,0,0.1,0.1,1,0.1c3.2,0,6.1-1.9,6.1-5.2C144.3,15,143.1,12.6,138.3,12.6z"/>
		<path class="st0" d="M152.4,26.8v-2.9c1-0.2,2.1-0.3,3.3-0.4V12.1c-1.2,0-2.3-0.1-3.3-0.3v-3h20.2v4.9h-5.3
			c-0.1-0.5-0.2-0.9-0.3-1.3h-4.5V16h4.1c0.1-0.3,0.1-0.5,0.3-0.9h3.9V20h-3.9c-0.1-0.3-0.2-0.4-0.3-0.8h-4.1v4.1h4.4
			c0.1-0.5,0.2-1.2,0.3-1.6h5.4v5.1C172.6,26.8,152.4,26.8,152.4,26.8z"/>
		<path class="st0" d="M186.9,21.3c-0.2,0-0.3,0-0.8,0v2.3c1.2,0,2.3,0.2,3.3,0.4v2.9H176V24c1-0.2,2.1-0.3,3.3-0.4V12.1
			c-1.2,0-2.2-0.1-3.3-0.3v-3h3.2c1.3,0,4.3-0.1,7.2-0.1c7,0,10.9,2.1,10.9,6C197.3,18.2,193.9,21.3,186.9,21.3z M187.3,12.5
			c-0.1,0-0.9,0-1.2,0v5.1c0.3,0.1,1,0.1,1.1,0.1c2,0,3.5-0.9,3.5-2.6C190.7,13.8,190,12.5,187.3,12.5z"/>
		<path class="st0" d="M240.2,14.8c-0.1-0.6-0.3-1.5-0.4-2.2h-2.7v11c1.2,0,2.2,0.2,3.2,0.4v2.9H227V24c1-0.2,2.1-0.3,3.3-0.4v-11
			h-2.8c-0.1,0.7-0.2,1.6-0.4,2.2h-4.5v-6h22.1v6H240.2z"/>
		<path class="st0" d="M245.1,23.3c1.1,0,1.9,0.8,1.9,1.8c0,1.1-0.8,1.8-2,1.8c-1.1,0-2-0.8-2-1.8C243.1,24.1,244,23.3,245.1,23.3
			L245.1,23.3z M245.1,23.6c-0.8,0-1.6,0.7-1.6,1.5s0.7,1.6,1.6,1.6c0.9,0,1.6-0.7,1.6-1.5C246.7,24.3,246,23.6,245.1,23.6
			L245.1,23.6z M244.7,26.2h-0.4v-2.1c0.2,0,0.4,0,0.6,0c0.3,0,0.5,0.1,0.7,0.2c0.1,0.1,0.2,0.2,0.2,0.4c0,0.3-0.2,0.4-0.4,0.5l0,0
			c0.2,0,0.3,0.2,0.3,0.5c0.1,0.3,0.1,0.4,0.2,0.5h-0.4c-0.1-0.1-0.1-0.3-0.1-0.5c-0.1-0.3-0.2-0.4-0.5-0.4h-0.2L244.7,26.2
			L244.7,26.2z M244.7,25.1h0.2c0.3,0,0.6-0.1,0.6-0.4c0-0.2-0.2-0.4-0.6-0.4c-0.1,0-0.2,0-0.2,0V25.1z"/>
		<g>
			<path class="st0" d="M222,17.8c0,6.1-5,9.7-11.8,9.7c-6.7,0-11.7-3.6-11.7-9.7c0-6,5-9.8,11.7-9.8C216.9,8,222,11.9,222,17.8z
				 M205.2,17.8c0,2.8,1.9,5.2,5,5.2c3.2,0,5-2.4,5-5.2c0-2.6-1.7-5.2-5-5.2C206.9,12.6,205.2,15.2,205.2,17.8z"/>
		</g>
	</g>
	<g class="st1">
		<path class="st0" d="M195.5,39.5c-0.2-0.2-0.3-0.4-0.3-0.7c0-0.3,0.1-0.5,0.3-0.7c0.2-0.2,0.4-0.3,0.7-0.3s0.5,0.1,0.7,0.3
			c0.2,0.2,0.3,0.4,0.3,0.7c0,0.3-0.1,0.5-0.3,0.7c-0.2,0.2-0.4,0.3-0.7,0.3C196,39.7,195.7,39.6,195.5,39.5z"/>
		<path class="st0" d="M199.7,39.3c-0.5-0.3-0.9-0.7-1.2-1.2s-0.4-1.1-0.4-1.7s0.1-1.2,0.4-1.7c0.3-0.5,0.7-0.9,1.2-1.2
			c0.5-0.3,1.1-0.4,1.8-0.4c0.6,0,1.2,0.1,1.7,0.4c0.5,0.3,0.8,0.6,1.1,1.1l-1.2,0.7c-0.2-0.3-0.4-0.5-0.7-0.7
			c-0.3-0.1-0.6-0.2-0.9-0.2c-0.6,0-1,0.2-1.4,0.5c-0.4,0.4-0.6,0.9-0.6,1.5c0,0.6,0.2,1.1,0.5,1.5c0.4,0.4,0.8,0.5,1.4,0.5
			c0.3,0,0.6-0.1,0.9-0.2s0.5-0.4,0.7-0.7l1.2,0.7c-0.2,0.5-0.6,0.9-1.1,1.1s-1,0.4-1.7,0.4C200.8,39.7,200.2,39.6,199.7,39.3z"/>
		<path class="st0" d="M206.6,39.3c-0.5-0.3-0.9-0.7-1.2-1.2s-0.4-1.1-0.4-1.7s0.1-1.2,0.4-1.7c0.3-0.5,0.7-0.9,1.2-1.2
			c0.5-0.3,1.1-0.4,1.8-0.4c0.7,0,1.2,0.1,1.8,0.4c0.5,0.3,0.9,0.7,1.2,1.2c0.3,0.5,0.4,1.1,0.4,1.7s-0.1,1.2-0.4,1.7
			c-0.3,0.5-0.7,0.9-1.2,1.2c-0.5,0.3-1.1,0.4-1.8,0.4C207.7,39.7,207.1,39.6,206.6,39.3z M209.7,37.9c0.4-0.4,0.5-0.9,0.5-1.5
			c0-0.6-0.2-1.1-0.5-1.5c-0.4-0.4-0.8-0.6-1.4-0.6s-1,0.2-1.4,0.6c-0.4,0.4-0.5,0.9-0.5,1.5c0,0.6,0.2,1.1,0.5,1.5
			c0.4,0.4,0.8,0.6,1.4,0.6S209.3,38.3,209.7,37.9z"/>
		<path class="st0" d="M223.2,33.9c0.5,0.5,0.7,1.2,0.7,2.1v3.7h-1.5v-3.5c0-0.6-0.1-1-0.4-1.3c-0.2-0.3-0.6-0.4-1.1-0.4
			c-0.5,0-0.9,0.2-1.2,0.5c-0.3,0.3-0.5,0.8-0.5,1.4v3.3h-1.5v-3.5c0-0.6-0.1-1-0.4-1.3s-0.6-0.4-1.1-0.4c-0.5,0-0.9,0.2-1.2,0.5
			s-0.5,0.8-0.5,1.4v3.3h-1.5v-6.4h1.4v0.8c0.2-0.3,0.5-0.5,0.9-0.7c0.4-0.2,0.8-0.2,1.2-0.2c0.5,0,0.9,0.1,1.3,0.3s0.7,0.4,0.9,0.8
			c0.3-0.3,0.6-0.6,1-0.8c0.4-0.2,0.9-0.3,1.4-0.3C222.1,33.2,222.7,33.4,223.2,33.9z"/>
		<path class="st0" d="M225.6,39.5c-0.2-0.2-0.3-0.4-0.3-0.7c0-0.3,0.1-0.5,0.3-0.7c0.2-0.2,0.4-0.3,0.7-0.3s0.5,0.1,0.7,0.3
			c0.2,0.2,0.3,0.4,0.3,0.7c0,0.3-0.1,0.5-0.3,0.7c-0.2,0.2-0.4,0.3-0.7,0.3C226,39.7,225.8,39.6,225.6,39.5z"/>
		<path class="st0" d="M234.3,33.9c0.5,0.5,0.7,1.2,0.7,2.1v3.7h-1.5v-3.5c0-0.6-0.1-1-0.4-1.3c-0.3-0.3-0.6-0.4-1.1-0.4
			c-0.6,0-1,0.2-1.3,0.5c-0.3,0.3-0.5,0.8-0.5,1.4v3.2h-1.5v-8.9h1.5V34c0.2-0.3,0.6-0.5,0.9-0.6c0.4-0.1,0.8-0.2,1.2-0.2
			C233.2,33.2,233.8,33.4,234.3,33.9z"/>
		<path class="st0" d="M242.5,33.9c0.5,0.5,0.7,1.2,0.7,2.1v3.7h-1.5v-3.5c0-0.6-0.1-1-0.4-1.3s-0.6-0.4-1.1-0.4
			c-0.6,0-1,0.2-1.3,0.5c-0.3,0.3-0.5,0.8-0.5,1.4v3.2H237v-6.4h1.4v0.8c0.2-0.3,0.6-0.5,0.9-0.7c0.4-0.2,0.8-0.2,1.3-0.2
			C241.4,33.2,242,33.4,242.5,33.9z"/>
	</g>
</g>
</svg>
